<svg width="406" height="251" xmlns="http://www.w3.org/2000/svg" xmlns:xlink="http://www.w3.org/1999/xlink" overflow="hidden"><defs><clipPath id="clip0"><path d="M630 134 1036 134 1036 385 630 385Z" fill-rule="evenodd" clip-rule="evenodd"/></clipPath></defs><g clip-path="url(#clip0)" transform="translate(-630 -134)"><path d="M855.5 165.334C855.5 148.857 868.857 135.5 885.334 135.5L1004.67 135.5C1021.14 135.5 1034.5 148.857 1034.5 165.334L1034.5 353.666C1034.5 370.143 1021.14 383.5 1004.67 383.5L885.334 383.5C868.857 383.5 855.5 370.143 855.5 353.666Z" stroke="#000000" stroke-width="3" stroke-linejoin="round" stroke-miterlimit="10" stroke-dasharray="12 9" fill="#FFFFFF" fill-rule="evenodd"/><path d="M718.5 287.5 750.185 287.5" stroke="#000000" stroke-width="3" stroke-linejoin="round" stroke-miterlimit="10" fill="none" fill-rule="evenodd"/><path d="M718.5 259.5 750.185 259.5" stroke="#000000" stroke-width="3" stroke-linejoin="round" stroke-miterlimit="10" fill="none" fill-rule="evenodd"/><rect x="632.5" y="216.5" width="86" height="29" stroke="#000000" stroke-width="3" stroke-linejoin="round" stroke-miterlimit="10" fill="#EEECE1"/><text font-family="Arial,Arial_MSFontService,sans-serif" font-weight="400" font-size="16" transform="translate(644.169 237)">SELECT</text><rect x="632.5" y="245.5" width="86" height="28" stroke="#000000" stroke-width="3" stroke-linejoin="round" stroke-miterlimit="10" fill="#FFFFFF"/><text font-family="Arial,Arial_MSFontService,sans-serif" font-weight="400" font-size="16" transform="translate(650.335 265)">ArtistId</text><rect x="632.5" y="272.5" width="86" height="29" stroke="#000000" stroke-width="3" stroke-linejoin="round" stroke-miterlimit="10" fill="#FFFFFF"/><text font-family="Arial,Arial_MSFontService,sans-serif" font-weight="400" font-size="16" transform="translate(654.002 293)">Name</text><rect x="750.5" y="216.5" width="86" height="29" stroke="#000000" stroke-width="3" stroke-linejoin="round" stroke-miterlimit="10"/><text fill="#FFFFFF" font-family="Arial,Arial_MSFontService,sans-serif" font-weight="400" font-size="16" transform="translate(774.729 237)">Artist</text><rect x="750.5" y="245.5" width="86" height="28" stroke="#000000" stroke-width="3" stroke-linejoin="round" stroke-miterlimit="10" fill="#FFFFFF"/><text font-family="Arial,Arial_MSFontService,sans-serif" font-weight="400" font-size="16" transform="translate(768.063 265)">ArtistId</text><rect x="750.5" y="272.5" width="86" height="29" stroke="#000000" stroke-width="3" stroke-linejoin="round" stroke-miterlimit="10" fill="#FFFFFF"/><text font-family="Arial,Arial_MSFontService,sans-serif" font-weight="400" font-size="16" transform="translate(771.729 293)">Name</text><rect x="901.5" y="159.5" width="98" height="29" stroke="#000000" stroke-width="3" stroke-linejoin="round" stroke-miterlimit="10"/><text fill="#FFFFFF" font-family="Arial,Arial_MSFontService,sans-serif" font-weight="400" font-size="16" transform="translate(927.333 180)">Album</text><rect x="901.5" y="188.5" width="98" height="29" stroke="#000000" stroke-width="3" stroke-linejoin="round" stroke-miterlimit="10" fill="#FFFFFF"/><text font-family="Arial,Arial_MSFontService,sans-serif" font-weight="400" font-size="16" transform="translate(925 209)">ArtistId</text><rect x="901.5" y="216.5" width="98" height="29" stroke="#000000" stroke-width="3" stroke-linejoin="round" stroke-miterlimit="10" fill="#FFFFFF"/><text font-family="Arial,Arial_MSFontService,sans-serif" font-weight="400" font-size="16" transform="translate(920.667 237)">AlbumId</text><rect x="901.5" y="272.5" width="98" height="29" stroke="#000000" stroke-width="3" stroke-linejoin="round" stroke-miterlimit="10"/><text fill="#FFFFFF" font-family="Arial,Arial_MSFontService,sans-serif" font-weight="400" font-size="16" transform="translate(930.213 293)">Track</text><rect x="901.5" y="302.5" width="98" height="29" stroke="#000000" stroke-width="3" stroke-linejoin="round" stroke-miterlimit="10" fill="#FFFFFF"/><text font-family="Arial,Arial_MSFontService,sans-serif" font-weight="400" font-size="16" transform="translate(920.667 323)">AlbumId</text><rect x="901.5" y="330.5" width="98" height="29" stroke="#000000" stroke-width="3" stroke-linejoin="round" stroke-miterlimit="10" fill="#FFFFFF"/><text font-family="Arial,Arial_MSFontService,sans-serif" font-weight="400" font-size="16" transform="translate(913.167 351)">Composer</text><path d="M0.153824-1.49209 6.36341-0.851929 12.4978 1.04059 18.2224 3.9029 23.3684 7.68095 27.6734 12.1817 31.0205 17.1694 33.1897 22.5596 33.8012 25.4134 33.9962 28.1431 34.1837 30.7681 34.1542 30.5607 34.7167 33.1857 34.6415 32.94 36.704 38.065 36.558 37.7892 39.7455 42.5392 39.584 42.3382 43.709 46.6507 43.5127 46.4784 48.4502 50.1034 48.1458 49.9306 52.4485 51.7467 51.282 54.5106 46.8168 52.6259 41.6316 48.819 37.3266 44.3183 33.9795 39.3306 31.8103 33.9404 31.1988 31.0866 31.0038 28.3569 30.8163 25.7319 30.8458 25.9393 30.2833 23.3143 30.3585 23.56 28.296 18.435 28.442 18.7108 25.2545 13.9608 25.416 14.1618 21.291 9.84933 21.4873 10.0216 16.5498 6.39662 16.7667 6.52914 11.2667 3.77914 11.4953 3.87084 5.6203 2.05834 5.90868 2.11709-0.153824 1.49209ZM52.2858 45.4917 64.9375 56.5 48.5398 60.0164Z" transform="matrix(1 0 0 -1 836.5 258.989)"/><path d="M901.24 346.855 895.177 346.23C895.074 346.22 894.973 346.198 894.875 346.167L889 344.292C888.918 344.266 888.838 344.232 888.761 344.192L883.261 341.317C883.19 341.28 883.122 341.238 883.058 341.19L878.121 337.502C878.051 337.45 877.987 337.393 877.927 337.33L873.802 332.955C873.741 332.89 873.687 332.821 873.638 332.746L870.451 327.871C870.394 327.786 870.347 327.694 870.31 327.599L868.247 322.349C868.217 322.271 868.193 322.19 868.175 322.108L867.613 319.42 867.397 316.53 867.21 313.842 866.674 311.289 866.75 311.542 864.687 306.355 864.826 306.621 861.638 301.746 861.802 301.955 857.677 297.58 857.861 297.745 852.924 293.995 853.236 294.177 848.914 292.309 850.104 289.556 854.426 291.424C854.537 291.472 854.642 291.533 854.738 291.606L859.676 295.356C859.742 295.406 859.803 295.461 859.86 295.522L863.985 299.897C864.046 299.961 864.1 300.031 864.149 300.105L867.336 304.98C867.391 305.064 867.438 305.153 867.475 305.246L869.537 310.434C869.57 310.516 869.595 310.601 869.613 310.687L870.202 313.634 870.39 316.321 870.549 318.806 871.112 321.493 871.04 321.252 873.102 326.502 872.961 326.23 876.149 331.105 875.985 330.897 880.11 335.272 879.916 335.099 884.854 338.786 884.651 338.659 890.151 341.534 889.912 341.434 895.787 343.309 895.485 343.246 901.547 343.871ZM849.046 298.567 836.456 287.488 852.873 284.064Z"/><path d="M999.5 231.5C1008.77 231.5 1018.03 252.837 1018.03 274.174 1018.03 295.511 1009.43 316.848 1000.83 316.848" stroke="#000000" stroke-width="3" stroke-linejoin="round" stroke-miterlimit="10" fill="none" fill-rule="evenodd"/></g></svg>