<svg width="645" height="281" xmlns="http://www.w3.org/2000/svg" xmlns:xlink="http://www.w3.org/1999/xlink" overflow="hidden"><defs><clipPath id="clip0"><path d="M523 151 1168 151 1168 432 523 432Z" fill-rule="evenodd" clip-rule="evenodd"/></clipPath></defs><g clip-path="url(#clip0)" transform="translate(-523 -151)"><path d="M885.5 322.758C885.5 315.436 891.436 309.5 898.758 309.5L1089.24 309.5C1096.56 309.5 1102.5 315.436 1102.5 322.758L1102.5 417.242C1102.5 424.564 1096.56 430.5 1089.24 430.5L898.758 430.5C891.436 430.5 885.5 424.564 885.5 417.242Z" stroke="#000000" stroke-width="3" stroke-linejoin="round" stroke-miterlimit="10" stroke-dasharray="12 9" fill="#FFFFFF" fill-rule="evenodd"/><rect x="525.5" y="227.5" width="78" height="29" stroke="#000000" stroke-width="3" stroke-linejoin="round" stroke-miterlimit="10" fill="#EEECE1"/><text font-family="Arial,Arial_MSFontService,sans-serif" font-weight="400" font-size="16" transform="translate(533.008 248)">SELECT</text><rect x="525.5" y="256.5" width="78" height="28" stroke="#000000" stroke-width="3" stroke-linejoin="round" stroke-miterlimit="10" fill="#FFFFFF"/><text font-family="Arial,Arial_MSFontService,sans-serif" font-weight="400" font-size="16" transform="translate(539.175 276)">ArtistId</text><rect x="525.5" y="285.5" width="78" height="28" stroke="#000000" stroke-width="3" stroke-linejoin="round" stroke-miterlimit="10" fill="#FFFFFF"/><text font-family="Arial,Arial_MSFontService,sans-serif" font-weight="400" font-size="16" transform="translate(542.842 305)">Name</text><rect x="634.5" y="227.5" width="78" height="29" stroke="#000000" stroke-width="3" stroke-linejoin="round" stroke-miterlimit="10"/><text fill="#FFFFFF" font-family="Arial,Arial_MSFontService,sans-serif" font-weight="400" font-size="16" transform="translate(654.528 248)">Artist</text><rect x="634.5" y="256.5" width="78" height="28" stroke="#000000" stroke-width="3" stroke-linejoin="round" stroke-miterlimit="10" fill="#FFFFFF"/><text font-family="Arial,Arial_MSFontService,sans-serif" font-weight="400" font-size="16" transform="translate(647.862 276)">ArtistId</text><rect x="634.5" y="285.5" width="78" height="28" stroke="#000000" stroke-width="3" stroke-linejoin="round" stroke-miterlimit="10" fill="#FFFFFF"/><text font-family="Arial,Arial_MSFontService,sans-serif" font-weight="400" font-size="16" transform="translate(651.528 305)">Name</text><path d="M603.5 270.5 634.408 270.5" stroke="#000000" stroke-width="3" stroke-linejoin="round" stroke-miterlimit="10" fill="none" fill-rule="evenodd"/><path d="M885.5 167.514C885.5 159.774 891.774 153.5 899.514 153.5L1152.49 153.5C1160.23 153.5 1166.5 159.774 1166.5 167.514L1166.5 260.486C1166.5 268.226 1160.23 274.5 1152.49 274.5L899.514 274.5C891.774 274.5 885.5 268.226 885.5 260.486Z" stroke="#000000" stroke-width="3" stroke-linejoin="round" stroke-miterlimit="10" stroke-dasharray="12 9" fill="#FFFFFF" fill-rule="evenodd"/><rect x="760.5" y="173.5" width="77" height="29" stroke="#000000" stroke-width="3" stroke-linejoin="round" stroke-miterlimit="10"/><text fill="#FFFFFF" font-family="Arial,Arial_MSFontService,sans-serif" font-weight="400" font-size="16" transform="translate(776.018 194)">Album</text><rect x="760.5" y="198.5" width="77" height="29" stroke="#000000" stroke-width="3" stroke-linejoin="round" stroke-miterlimit="10" fill="#FFFFFF"/><text font-family="Arial,Arial_MSFontService,sans-serif" font-weight="400" font-size="16" transform="translate(773.685 219)">ArtistId</text><rect x="760.5" y="227.5" width="77" height="29" stroke="#000000" stroke-width="3" stroke-linejoin="round" stroke-miterlimit="10" fill="#FFFFFF"/><text font-family="Arial,Arial_MSFontService,sans-serif" font-weight="400" font-size="16" transform="translate(769.351 248)">AlbumId</text><rect x="910.5" y="173.5" width="84" height="29" stroke="#000000" stroke-width="3" stroke-linejoin="round" stroke-miterlimit="10"/><text fill="#FFFFFF" font-family="Arial,Arial_MSFontService,sans-serif" font-weight="400" font-size="16" transform="translate(932.739 194)">Track</text><rect x="910.5" y="227.5" width="84" height="29" stroke="#000000" stroke-width="3" stroke-linejoin="round" stroke-miterlimit="10" fill="#FFFFFF"/><text font-family="Arial,Arial_MSFontService,sans-serif" font-weight="400" font-size="16" transform="translate(923.192 248)">AlbumId</text><rect x="910.5" y="198.5" width="84" height="29" stroke="#000000" stroke-width="3" stroke-linejoin="round" stroke-miterlimit="10" fill="#FFFFFF"/><text font-family="Arial,Arial_MSFontService,sans-serif" font-weight="400" font-size="16" transform="translate(923.609 219)">GenreId</text><path d="M0 0C12.0112 0 24.0224 14.3592 24.0224 28.7184 24.0224 43.0776 36.0337 57.4368 48.0448 57.4368" stroke="#000000" stroke-width="3" stroke-miterlimit="8" fill="none" fill-rule="evenodd" transform="matrix(1 0 0 -1 712.5 270.937)"/><path d="M760.545 341.157C748.534 341.157 736.522 323.492 736.522 305.828 736.522 288.164 724.511 270.5 712.5 270.5" stroke="#000000" stroke-width="3" stroke-miterlimit="8" fill="none" fill-rule="evenodd"/><path d="M837.5 241.5C845.854 241.5 854.209 273.523 854.209 305.547 854.209 337.57 846.521 369.593 838.833 369.593" stroke="#000000" stroke-width="3" stroke-miterlimit="8" fill="none" fill-rule="evenodd"/><text font-family="Arial,Arial_MSFontService,sans-serif" font-weight="700" font-size="13" transform="matrix(-1 1.22465e-16 -1.22465e-16 -1 874.353 288)">&lt;&gt;</text><rect x="1024.5" y="173.5" width="116" height="29" stroke="#000000" stroke-width="3" stroke-linejoin="round" stroke-miterlimit="10"/><text fill="#FFFFFF" font-family="Arial,Arial_MSFontService,sans-serif" font-weight="400" font-size="16" transform="translate(1059.49 194)">Genre</text><rect x="1024.5" y="198.5" width="116" height="29" stroke="#000000" stroke-width="3" stroke-linejoin="round" stroke-miterlimit="10" fill="#FFFFFF"/><text font-family="Arial,Arial_MSFontService,sans-serif" font-weight="400" font-size="16" transform="translate(1052.83 219)">GenreId</text><rect x="1024.5" y="227.5" width="116" height="29" stroke="#000000" stroke-width="3" stroke-linejoin="round" stroke-miterlimit="10" fill="#FFFFA3"/><text font-family="Arial,Arial_MSFontService,sans-serif" font-weight="400" font-size="16" transform="translate(1030.08 248)">Name = 'Rock'</text><rect x="910.5" y="355.5" width="165" height="29" stroke="#000000" stroke-width="3" stroke-linejoin="round" stroke-miterlimit="10" fill="#FFFFFF"/><text font-family="Arial,Arial_MSFontService,sans-serif" font-weight="400" font-size="16" transform="translate(963.293 376)">AlbumId</text><rect x="910.5" y="384.5" width="165" height="29" stroke="#000000" stroke-width="3" stroke-linejoin="round" stroke-miterlimit="10" fill="#FFFFA3"/><text font-family="Arial,Arial_MSFontService,sans-serif" font-weight="400" font-size="16" transform="translate(917.543 405)">Millisecond &lt; 270000</text><path d="M837.5 368 896.951 368 896.951 371 837.5 371ZM895.451 362 910.451 369.5 895.451 377Z"/><path d="M603.5 299.5 634.408 299.5" stroke="#000000" stroke-width="3" stroke-linejoin="round" stroke-miterlimit="10" fill="none" fill-rule="evenodd"/><path d="M994.5 213.5 1023.63 213.5" stroke="#000000" stroke-width="3" stroke-linejoin="round" stroke-miterlimit="10" fill="none" fill-rule="evenodd"/><path d="M837.5 240 896.951 240 896.951 243 837.5 243ZM895.451 234 910.451 241.5 895.451 249Z"/><rect x="760.5" y="301.5" width="77" height="28" stroke="#000000" stroke-width="3" stroke-linejoin="round" stroke-miterlimit="10"/><text fill="#FFFFFF" font-family="Arial,Arial_MSFontService,sans-serif" font-weight="400" font-size="16" transform="translate(776.018 321)">Album</text><rect x="760.5" y="326.5" width="77" height="29" stroke="#000000" stroke-width="3" stroke-linejoin="round" stroke-miterlimit="10" fill="#FFFFFF"/><text font-family="Arial,Arial_MSFontService,sans-serif" font-weight="400" font-size="16" transform="translate(773.685 347)">ArtistId</text><rect x="760.5" y="355.5" width="77" height="29" stroke="#000000" stroke-width="3" stroke-linejoin="round" stroke-miterlimit="10" fill="#FFFFFF"/><text font-family="Arial,Arial_MSFontService,sans-serif" font-weight="400" font-size="16" transform="translate(769.351 376)">AlbumId</text><rect x="910.5" y="326.5" width="165" height="29" stroke="#000000" stroke-width="3" stroke-linejoin="round" stroke-miterlimit="10"/><text fill="#FFFFFF" font-family="Arial,Arial_MSFontService,sans-serif" font-weight="400" font-size="16" transform="translate(972.84 347)">Track</text></g></svg>