<svg width="727" height="278" xmlns="http://www.w3.org/2000/svg" xmlns:xlink="http://www.w3.org/1999/xlink" overflow="hidden"><defs><clipPath id="clip0"><path d="M501 93 1228 93 1228 371 501 371Z" fill-rule="evenodd" clip-rule="evenodd"/></clipPath></defs><g clip-path="url(#clip0)" transform="translate(-501 -93)"><path d="M813.5 117.785C813.5 107.134 822.134 98.5001 832.785 98.5001L957.216 98.5001C967.866 98.5001 976.5 107.134 976.5 117.785L976.5 346.216C976.5 356.866 967.866 365.5 957.216 365.5L832.785 365.5C822.134 365.5 813.5 356.866 813.5 346.216Z" fill="#FFFFFF" fill-rule="evenodd"/><path d="M809 117.813 809.396 113.504C809.426 113.199 809.486 112.897 809.577 112.604L810.702 108.979C810.795 108.681 810.918 108.393 811.07 108.121L812.882 104.871C813.015 104.633 813.17 104.407 813.343 104.197L815.718 101.322C815.9 101.102 816.102 100.9 816.322 100.718L819.197 98.3432C819.407 98.1696 819.633 98.0152 819.871 97.8824L823.121 96.0699C823.393 95.918 823.681 95.7947 823.979 95.7023L827.604 94.5773C827.897 94.4863 828.199 94.4255 828.504 94.396L832.379 94.021 957.25 94.0001 961.559 94.396C961.864 94.4255 962.166 94.4863 962.459 94.5773L966.084 95.7023C966.382 95.7947 966.669 95.918 966.942 96.0699L970.192 97.8824C970.43 98.0152 970.656 98.1696 970.866 98.3432L973.741 100.718C973.976 100.912 974.191 101.13 974.382 101.367L976.694 104.242C976.853 104.439 976.994 104.65 977.118 104.871L978.93 108.121C979.082 108.393 979.205 108.681 979.298 108.979L980.423 112.604C980.514 112.897 980.575 113.199 980.604 113.504L980.979 117.379 981 346.25 980.604 350.559C980.575 350.864 980.514 351.166 980.423 351.459L979.298 355.084C979.205 355.382 979.082 355.669 978.93 355.942L977.118 359.192C976.994 359.413 976.853 359.623 976.694 359.82L974.382 362.695C974.178 362.948 973.948 363.178 973.695 363.382L970.82 365.694C970.623 365.853 970.413 365.994 970.192 366.118L966.942 367.93C966.669 368.082 966.382 368.205 966.084 368.298L962.459 369.423C962.166 369.514 961.864 369.575 961.559 369.604L957.684 369.979 832.813 370 828.504 369.604C828.199 369.575 827.897 369.514 827.604 369.423L823.979 368.298C823.681 368.205 823.393 368.082 823.121 367.93L819.871 366.118C819.649 365.994 819.44 365.853 819.242 365.694L816.367 363.382C816.13 363.191 815.912 362.976 815.718 362.741L813.343 359.866C813.17 359.656 813.015 359.43 812.882 359.192L811.07 355.942C810.918 355.669 810.795 355.382 810.702 355.084L809.577 351.459C809.486 351.166 809.426 350.864 809.396 350.559L809.021 346.684ZM812.007 346.395 812.382 350.27C812.392 350.371 812.412 350.472 812.442 350.57L813.567 354.195C813.598 354.294 813.639 354.39 813.69 354.481L815.503 357.731C815.547 357.81 815.598 357.885 815.656 357.955L818.031 360.83C818.096 360.909 818.168 360.98 818.247 361.044L821.122 363.356C821.188 363.409 821.258 363.456 821.332 363.498L824.582 365.31C824.673 365.361 824.769 365.402 824.868 365.433L828.493 366.558C828.591 366.588 828.691 366.608 828.793 366.618L832.813 367 957.395 366.993 961.27 366.618C961.371 366.608 961.472 366.588 961.57 366.558L965.195 365.433C965.294 365.402 965.39 365.361 965.481 365.31L968.731 363.498C968.804 363.456 968.874 363.409 968.94 363.356L971.815 361.044C971.899 360.976 971.976 360.899 972.044 360.815L974.356 357.94C974.409 357.874 974.456 357.804 974.498 357.731L976.31 354.481C976.361 354.39 976.402 354.294 976.433 354.195L977.558 350.57C977.588 350.472 977.608 350.371 977.618 350.27L978 346.25 977.993 117.668 977.618 113.793C977.608 113.691 977.588 113.591 977.558 113.493L976.433 109.868C976.402 109.769 976.361 109.673 976.31 109.582L974.498 106.332C974.456 106.258 974.409 106.188 974.356 106.122L972.044 103.247C971.98 103.168 971.909 103.096 971.83 103.031L968.955 100.656C968.885 100.598 968.81 100.547 968.731 100.503L965.481 98.69C965.39 98.6394 965.294 98.5983 965.195 98.5675L961.57 97.4425C961.472 97.4121 961.371 97.3919 961.27 97.382L957.25 97.0001 832.668 97.007 828.793 97.382C828.691 97.3919 828.591 97.4121 828.493 97.4425L824.868 98.5675C824.769 98.5983 824.673 98.6394 824.582 98.69L821.332 100.503C821.253 100.547 821.177 100.598 821.107 100.656L818.232 103.031C818.159 103.092 818.092 103.159 818.031 103.232L815.656 106.107C815.598 106.177 815.547 106.253 815.503 106.332L813.69 109.582C813.639 109.673 813.598 109.769 813.567 109.868L812.442 113.493C812.412 113.591 812.392 113.691 812.382 113.793L812 117.813ZM815 117.813 815.353 114.235 816.386 110.907 818.056 107.913 820.253 105.253 822.913 103.056 825.907 101.386 829.235 100.353 832.957 99.9931 957.25 100 960.827 100.353 964.156 101.386 967.15 103.056 969.802 105.247 971.939 107.904 973.614 110.907 974.647 114.235 975.007 117.957 975 346.25 974.647 349.827 973.614 353.156 971.939 356.159 969.808 358.808 967.159 360.939 964.156 362.614 960.827 363.647 957.106 364.007 832.813 364 829.235 363.647 825.907 362.614 822.904 360.939 820.247 358.802 818.056 356.15 816.386 353.156 815.353 349.827 814.993 346.106ZM817.979 345.817 818.31 349.232 819.159 351.968 820.543 354.45 822.365 356.656 824.587 358.443 827.095 359.841 829.831 360.69 832.813 361 956.817 361.021 960.232 360.69 962.968 359.841 965.476 358.443 967.674 356.674 969.443 354.476 970.841 351.968 971.69 349.232 972 346.25 972.021 118.246 971.69 114.83 970.841 112.095 969.443 109.587 967.656 107.365 965.45 105.543 962.968 104.159 960.232 103.31 957.25 103 833.246 102.979 829.831 103.31 827.095 104.159 824.612 105.543 822.384 107.384 820.543 109.612 819.159 112.095 818.31 114.83 818 117.813Z"/><path d="M580.5 164.5 608.777 164.5" stroke="#000000" stroke-width="3" stroke-linejoin="round" stroke-miterlimit="10" fill="none" fill-rule="evenodd"/><rect x="504.5" y="121.5" width="76" height="29" stroke="#000000" stroke-width="3" stroke-linejoin="round" stroke-miterlimit="10" fill="#EEECE1"/><text font-family="Arial,Arial_MSFontService,sans-serif" font-weight="400" font-size="16" transform="translate(510.9 142)">SELECT</text><rect x="504.5" y="149.5" width="76" height="29" stroke="#000000" stroke-width="3" stroke-linejoin="round" stroke-miterlimit="10" fill="#FFFFFF"/><text font-family="Arial,Arial_MSFontService,sans-serif" font-weight="400" font-size="16" transform="translate(517.067 170)">ArtistId</text><rect x="504.5" y="178.5" width="76" height="29" stroke="#000000" stroke-width="3" stroke-linejoin="round" stroke-miterlimit="10" fill="#FFFFFF"/><text font-family="Arial,Arial_MSFontService,sans-serif" font-weight="400" font-size="16" transform="translate(520.734 199)">Name</text><rect x="608.5" y="121.5" width="74" height="29" stroke="#000000" stroke-width="3" stroke-linejoin="round" stroke-miterlimit="10"/><text fill="#FFFFFF" font-family="Arial,Arial_MSFontService,sans-serif" font-weight="400" font-size="16" transform="translate(627.124 142)">Artist</text><rect x="608.5" y="149.5" width="74" height="29" stroke="#000000" stroke-width="3" stroke-linejoin="round" stroke-miterlimit="10" fill="#FFFFFF"/><text font-family="Arial,Arial_MSFontService,sans-serif" font-weight="400" font-size="16" transform="translate(620.457 170)">ArtistId</text><rect x="608.5" y="178.5" width="74" height="29" stroke="#000000" stroke-width="3" stroke-linejoin="round" stroke-miterlimit="10" fill="#FFFFFF"/><text font-family="Arial,Arial_MSFontService,sans-serif" font-weight="400" font-size="16" transform="translate(624.124 199)">Name</text><path d="M580.5 192.5 608.777 192.5" stroke="#000000" stroke-width="3" stroke-linejoin="round" stroke-miterlimit="10" fill="none" fill-rule="evenodd"/><rect x="712.5" y="121.5" width="74" height="29" stroke="#000000" stroke-width="3" stroke-linejoin="round" stroke-miterlimit="10"/><text fill="#FFFFFF" font-family="Arial,Arial_MSFontService,sans-serif" font-weight="400" font-size="16" transform="translate(726.062 142)">Album</text><rect x="712.5" y="149.5" width="74" height="29" stroke="#000000" stroke-width="3" stroke-linejoin="round" stroke-miterlimit="10" fill="#FFFFFF"/><text font-family="Arial,Arial_MSFontService,sans-serif" font-weight="400" font-size="16" transform="translate(723.729 170)">ArtistId</text><rect x="712.5" y="178.5" width="74" height="29" stroke="#000000" stroke-width="3" stroke-linejoin="round" stroke-miterlimit="10" fill="#FFFFFF"/><text font-family="Arial,Arial_MSFontService,sans-serif" font-weight="400" font-size="16" transform="translate(719.396 199)">AlbumId</text><path d="M928.5 221.5C948.794 221.5 969.087 242.071 969.087 262.641 969.087 283.212 957.087 303.782 945.087 303.782" stroke="#000000" stroke-width="3" stroke-miterlimit="8" fill="none" fill-rule="evenodd"/><rect x="834.5" y="260.5" width="111" height="29" stroke="#000000" stroke-width="3" stroke-linejoin="round" stroke-miterlimit="10"/><text fill="#FFFFFF" font-family="Arial,Arial_MSFontService,sans-serif" font-weight="400" font-size="16" transform="translate(867.018 281)">Genre</text><rect x="834.5" y="289.5" width="111" height="28" stroke="#000000" stroke-width="3" stroke-linejoin="round" stroke-miterlimit="10" fill="#FFFFFF"/><text font-family="Arial,Arial_MSFontService,sans-serif" font-weight="400" font-size="16" transform="translate(860.351 309)">GenreId</text><rect x="834.5" y="318.5" width="111" height="28" stroke="#000000" stroke-width="3" stroke-linejoin="round" stroke-miterlimit="10" fill="#FFFFA3"/><text font-family="Arial,Arial_MSFontService,sans-serif" font-weight="400" font-size="16" transform="translate(839.351 338)">Name = 'Jazz'</text><path d="M0 0 29.2301 0.000104987" stroke="#000000" stroke-width="3" stroke-linejoin="round" stroke-miterlimit="10" fill="none" fill-rule="evenodd" transform="matrix(-1 -8.74228e-08 -8.74228e-08 1 711.73 164.5)"/><rect x="1009.5" y="121.5" width="107" height="29" stroke="#000000" stroke-width="3" stroke-linejoin="round" stroke-miterlimit="10"/><text fill="#FFFFFF" font-family="Arial,Arial_MSFontService,sans-serif" font-weight="400" font-size="16" transform="translate(1017.79 142)">PlaylistTrack</text><rect x="1009.5" y="149.5" width="107" height="29" stroke="#000000" stroke-width="3" stroke-linejoin="round" stroke-miterlimit="10" fill="#FFFFFF"/><text font-family="Arial,Arial_MSFontService,sans-serif" font-weight="400" font-size="16" transform="translate(1036.38 170)">TrackId</text><rect x="1009.5" y="178.5" width="107" height="29" stroke="#000000" stroke-width="3" stroke-linejoin="round" stroke-miterlimit="10" fill="#FFFFFF"/><text font-family="Arial,Arial_MSFontService,sans-serif" font-weight="400" font-size="16" transform="translate(1030.83 199)">PlaylistId</text><rect x="1144.5" y="149.5" width="82" height="29" stroke="#000000" stroke-width="3" stroke-linejoin="round" stroke-miterlimit="10"/><text fill="#FFFFFF" font-family="Arial,Arial_MSFontService,sans-serif" font-weight="400" font-size="16" transform="translate(1159.59 170)">Playlist</text><rect x="1144.5" y="178.5" width="82" height="29" stroke="#000000" stroke-width="3" stroke-linejoin="round" stroke-miterlimit="10" fill="#FFFFFF"/><text font-family="Arial,Arial_MSFontService,sans-serif" font-weight="400" font-size="16" transform="translate(1152.93 199)">PlaylistId</text><rect x="847.5" y="121.5" width="81" height="29" stroke="#000000" stroke-width="3" stroke-linejoin="round" stroke-miterlimit="10"/><text fill="#FFFFFF" font-family="Arial,Arial_MSFontService,sans-serif" font-weight="400" font-size="16" transform="translate(868.067 142)">Track</text><rect x="847.5" y="149.5" width="81" height="29" stroke="#000000" stroke-width="3" stroke-linejoin="round" stroke-miterlimit="10" fill="#FFFFFF"/><text font-family="Arial,Arial_MSFontService,sans-serif" font-weight="400" font-size="16" transform="translate(861.4 170)">TrackId</text><rect x="847.5" y="178.5" width="81" height="29" stroke="#000000" stroke-width="3" stroke-linejoin="round" stroke-miterlimit="10" fill="#FFFFFF"/><text font-family="Arial,Arial_MSFontService,sans-serif" font-weight="400" font-size="16" transform="translate(858.52 199)">AlbumId</text><rect x="847.5" y="206.5" width="81" height="29" stroke="#000000" stroke-width="3" stroke-linejoin="round" stroke-miterlimit="10" fill="#FFFFFF"/><text font-family="Arial,Arial_MSFontService,sans-serif" font-weight="400" font-size="16" transform="translate(858.937 227)">GenreId</text><path d="M0 0 27.8806 0.000104987" stroke="#000000" stroke-width="3" stroke-linejoin="round" stroke-miterlimit="10" fill="none" fill-rule="evenodd" transform="matrix(-1 -8.74228e-08 -8.74228e-08 1 1144.38 192.5)"/><path d="M928.5 163 996.053 163 996.053 166 928.5 166ZM994.553 157 1009.55 164.5 994.553 172Z"/><path d="M786.5 191 834.692 191 834.692 194 786.5 194ZM833.192 185 848.192 192.5 833.192 200Z"/></g></svg>