<svg width="633" height="419" xmlns="http://www.w3.org/2000/svg" xmlns:xlink="http://www.w3.org/1999/xlink" overflow="hidden"><defs><clipPath id="clip0"><path d="M581 21 1214 21 1214 440 581 440Z" fill-rule="evenodd" clip-rule="evenodd"/></clipPath></defs><g clip-path="url(#clip0)" transform="translate(-581 -21)"><path d="M0 0 46.5916 0.000104987" stroke="#000000" stroke-width="3" stroke-miterlimit="8" fill="none" fill-rule="evenodd" transform="matrix(-1 -8.74228e-08 -8.74228e-08 1 1055.09 198.5)"/><path d="M0 0 31.7391 0.000104987" stroke="#000000" stroke-width="3" stroke-linejoin="round" stroke-miterlimit="10" fill="none" fill-rule="evenodd" transform="matrix(-1 -8.74228e-08 -8.74228e-08 1 693.239 238.5)"/><path d="M0 0C11.7234 0 23.4468 17.1114 23.4468 34.2228 23.4468 51.3343 35.1702 68.4457 46.8935 68.4457" stroke="#000000" stroke-width="3" stroke-miterlimit="8" fill="none" fill-rule="evenodd" transform="matrix(-1 -8.74228e-08 -8.74228e-08 1 818.394 169.5)"/><rect x="583.5" y="195.5" width="78" height="29" stroke="#000000" stroke-width="3" stroke-linejoin="round" stroke-miterlimit="10" fill="#EEECE1"/><text font-family="Arial,Arial_MSFontService,sans-serif" font-weight="400" font-size="16" transform="translate(591.061 216)">SELECT</text><rect x="583.5" y="223.5" width="78" height="29" stroke="#000000" stroke-width="3" stroke-linejoin="round" stroke-miterlimit="10" fill="#FFFFFF"/><text font-family="Arial,Arial_MSFontService,sans-serif" font-weight="400" font-size="16" transform="translate(597.228 244)">ArtistId</text><rect x="583.5" y="251.5" width="78" height="29" stroke="#000000" stroke-width="3" stroke-linejoin="round" stroke-miterlimit="10" fill="#FFFFFF"/><text font-family="Arial,Arial_MSFontService,sans-serif" font-weight="400" font-size="16" transform="translate(600.895 272)">Name</text><rect x="693.5" y="195.5" width="78" height="29" stroke="#000000" stroke-width="3" stroke-linejoin="round" stroke-miterlimit="10"/><text fill="#FFFFFF" font-family="Arial,Arial_MSFontService,sans-serif" font-weight="400" font-size="16" transform="translate(713.607 216)">Artist</text><rect x="693.5" y="223.5" width="78" height="29" stroke="#000000" stroke-width="3" stroke-linejoin="round" stroke-miterlimit="10" fill="#FFFFFF"/><text font-family="Arial,Arial_MSFontService,sans-serif" font-weight="400" font-size="16" transform="translate(706.94 244)">ArtistId</text><rect x="693.5" y="251.5" width="78" height="29" stroke="#000000" stroke-width="3" stroke-linejoin="round" stroke-miterlimit="10" fill="#FFFFFF"/><text font-family="Arial,Arial_MSFontService,sans-serif" font-weight="400" font-size="16" transform="translate(710.607 272)">Name</text><rect x="818.5" y="244.5" width="81" height="29" stroke="#000000" stroke-width="3" stroke-linejoin="round" stroke-miterlimit="10"/><text fill="#FFFFFF" font-family="Arial,Arial_MSFontService,sans-serif" font-weight="400" font-size="16" transform="translate(835.673 265)">Album</text><rect x="818.5" y="275.5" width="81" height="29" stroke="#000000" stroke-width="3" stroke-linejoin="round" stroke-miterlimit="10" fill="#FFFFFF"/><text font-family="Arial,Arial_MSFontService,sans-serif" font-weight="400" font-size="16" transform="translate(829.006 296)">AlbumId</text><rect x="818.5" y="303.5" width="81" height="29" stroke="#000000" stroke-width="3" stroke-linejoin="round" stroke-miterlimit="10" fill="#FFFFFF"/><text font-family="Arial,Arial_MSFontService,sans-serif" font-weight="400" font-size="16" transform="translate(833.339 324)">ArtistId</text><rect x="818.5" y="98.5001" width="81" height="29" stroke="#000000" stroke-width="3" stroke-linejoin="round" stroke-miterlimit="10"/><text fill="#FFFFFF" font-family="Arial,Arial_MSFontService,sans-serif" font-weight="400" font-size="16" transform="translate(835.673 119)">Album</text><rect x="818.5" y="127.5" width="81" height="29" stroke="#000000" stroke-width="3" stroke-linejoin="round" stroke-miterlimit="10" fill="#FFFFFF"/><text font-family="Arial,Arial_MSFontService,sans-serif" font-weight="400" font-size="16" transform="translate(829.006 148)">AlbumId</text><rect x="818.5" y="155.5" width="81" height="29" stroke="#000000" stroke-width="3" stroke-linejoin="round" stroke-miterlimit="10" fill="#FFFFFF"/><text font-family="Arial,Arial_MSFontService,sans-serif" font-weight="400" font-size="16" transform="translate(833.339 176)">ArtistId</text><rect x="1054.5" y="127.5" width="128" height="29" stroke="#000000" stroke-width="3" stroke-linejoin="round" stroke-miterlimit="10"/><text fill="#FFFFFF" font-family="Arial,Arial_MSFontService,sans-serif" font-weight="400" font-size="16" transform="translate(1073.29 148)">PlaylistTrack</text><rect x="1054.5" y="155.5" width="128" height="29" stroke="#000000" stroke-width="3" stroke-linejoin="round" stroke-miterlimit="10" fill="#FFFFFF"/><text font-family="Arial,Arial_MSFontService,sans-serif" font-weight="400" font-size="16" transform="translate(1086.32 176)">PlaylistId</text><rect x="1054.5" y="184.5" width="128" height="28" stroke="#000000" stroke-width="3" stroke-linejoin="round" stroke-miterlimit="10" fill="#FFFFFF"/><text font-family="Arial,Arial_MSFontService,sans-serif" font-weight="400" font-size="16" transform="translate(1091.87 204)">TrackId</text><path d="M818.394 317.802C806.67 317.802 794.947 297.977 794.947 278.151 794.947 258.326 783.223 238.5 771.5 238.5" stroke="#000000" stroke-width="3" stroke-miterlimit="8" fill="none" fill-rule="evenodd"/><path d="M899.5 141.5 931.403 141.5" stroke="#000000" stroke-width="3" stroke-linejoin="round" stroke-miterlimit="10" fill="none" fill-rule="evenodd"/><path d="M0 0 31.9032 0.000104987" stroke="#000000" stroke-width="3" stroke-linejoin="round" stroke-miterlimit="10" fill="none" fill-rule="evenodd" transform="matrix(-1 -8.74228e-08 -8.74228e-08 1 931.403 289.5)"/><rect x="1054.5" y="244.5" width="128" height="29" stroke="#000000" stroke-width="3" stroke-linejoin="round" stroke-miterlimit="10"/><text fill="#FFFFFF" font-family="Arial,Arial_MSFontService,sans-serif" font-weight="400" font-size="16" transform="translate(1096.07 265)">Genre</text><rect x="1054.5" y="303.5" width="128" height="29" stroke="#000000" stroke-width="3" stroke-linejoin="round" stroke-miterlimit="10" fill="#FFFFFF"/><text font-family="Arial,Arial_MSFontService,sans-serif" font-weight="400" font-size="16" transform="translate(1088.07 324)">GenreID</text><rect x="1054.5" y="275.5" width="128" height="29" stroke="#000000" stroke-width="3" stroke-linejoin="round" stroke-miterlimit="10" fill="#FFFFA3"/><text font-family="Arial,Arial_MSFontService,sans-serif" font-weight="400" font-size="16" transform="translate(1066.66 296)">Name = 'Rock'</text><rect x="1054.5" y="23.5001" width="128" height="29" stroke="#000000" stroke-width="3" stroke-linejoin="round" stroke-miterlimit="10"/><text fill="#FFFFFF" font-family="Arial,Arial_MSFontService,sans-serif" font-weight="400" font-size="16" transform="translate(1096.07 44)">Genre</text><rect x="1054.5" y="52.5001" width="128" height="29" stroke="#000000" stroke-width="3" stroke-linejoin="round" stroke-miterlimit="10" fill="#FFFFFF"/><text font-family="Arial,Arial_MSFontService,sans-serif" font-weight="400" font-size="16" transform="translate(1088.07 73)">GenreID</text><rect x="1054.5" y="81.5001" width="128" height="29" stroke="#000000" stroke-width="3" stroke-linejoin="round" stroke-miterlimit="10" fill="#FFFFA3"/><text font-family="Arial,Arial_MSFontService,sans-serif" font-weight="400" font-size="16" transform="translate(1070.66 102)">Name = 'Pop'</text><path d="M1008.5 317.5 1055.09 317.5" stroke="#000000" stroke-width="3" stroke-linejoin="round" stroke-miterlimit="10" fill="none" fill-rule="evenodd"/><rect x="931.5" y="98.5001" width="77" height="29" stroke="#000000" stroke-width="3" stroke-linejoin="round" stroke-miterlimit="10"/><text fill="#FFFFFF" font-family="Arial,Arial_MSFontService,sans-serif" font-weight="400" font-size="16" transform="translate(949.424 119)">Track</text><rect x="931.5" y="127.5" width="77" height="29" stroke="#000000" stroke-width="3" stroke-linejoin="round" stroke-miterlimit="10" fill="#FFFFFF"/><text font-family="Arial,Arial_MSFontService,sans-serif" font-weight="400" font-size="16" transform="translate(939.877 148)">AlbumId</text><rect x="931.5" y="155.5" width="77" height="29" stroke="#000000" stroke-width="3" stroke-linejoin="round" stroke-miterlimit="10" fill="#FFFFFF"/><text font-family="Arial,Arial_MSFontService,sans-serif" font-weight="400" font-size="16" transform="translate(940.294 176)">GenreId</text><rect x="931.5" y="184.5" width="77" height="28" stroke="#000000" stroke-width="3" stroke-linejoin="round" stroke-miterlimit="10" fill="#FFFFFF"/><text font-family="Arial,Arial_MSFontService,sans-serif" font-weight="400" font-size="16" transform="translate(942.757 204)">TrackId</text><rect x="931.5" y="244.5" width="77" height="29" stroke="#000000" stroke-width="3" stroke-linejoin="round" stroke-miterlimit="10"/><text fill="#FFFFFF" font-family="Arial,Arial_MSFontService,sans-serif" font-weight="400" font-size="16" transform="translate(949.424 265)">Track</text><rect x="931.5" y="275.5" width="77" height="29" stroke="#000000" stroke-width="3" stroke-linejoin="round" stroke-miterlimit="10" fill="#FFFFFF"/><text font-family="Arial,Arial_MSFontService,sans-serif" font-weight="400" font-size="16" transform="translate(939.877 296)">AlbumId</text><rect x="931.5" y="303.5" width="77" height="29" stroke="#000000" stroke-width="3" stroke-linejoin="round" stroke-miterlimit="10" fill="#FFFFFF"/><text font-family="Arial,Arial_MSFontService,sans-serif" font-weight="400" font-size="16" transform="translate(940.294 324)">GenreId</text><rect x="931.5" y="331.5" width="77" height="29" stroke="#000000" stroke-width="3" stroke-linejoin="round" stroke-miterlimit="10" fill="#FFFFFF"/><text font-family="Arial,Arial_MSFontService,sans-serif" font-weight="400" font-size="16" transform="translate(942.757 352)">TrackId</text><path d="M1008.5 345.5C1020.15 345.5 1031.8 364.23 1031.8 382.96 1031.8 401.69 1043.44 420.42 1055.09 420.42" stroke="#000000" stroke-width="3" stroke-miterlimit="8" fill="none" fill-rule="evenodd"/><rect x="1054.5" y="348.5" width="128" height="29" stroke="#000000" stroke-width="3" stroke-linejoin="round" stroke-miterlimit="10"/><text fill="#FFFFFF" font-family="Arial,Arial_MSFontService,sans-serif" font-weight="400" font-size="16" transform="translate(1073.29 369)">PlaylistTrack</text><rect x="1054.5" y="377.5" width="128" height="29" stroke="#000000" stroke-width="3" stroke-linejoin="round" stroke-miterlimit="10" fill="#FFFFFF"/><text font-family="Arial,Arial_MSFontService,sans-serif" font-weight="400" font-size="16" transform="translate(1086.32 398)">PlaylistId</text><rect x="1054.5" y="406.5" width="128" height="29" stroke="#000000" stroke-width="3" stroke-linejoin="round" stroke-miterlimit="10" fill="#FFFFFF"/><text font-family="Arial,Arial_MSFontService,sans-serif" font-weight="400" font-size="16" transform="translate(1091.87 427)">TrackId</text><path d="M0 0C11.6479 0 23.2959 25.7099 23.2959 51.4198 23.2959 77.1298 34.9437 102.84 46.5916 102.84" stroke="#000000" stroke-width="3" stroke-miterlimit="8" fill="none" fill-rule="evenodd" transform="matrix(-1 -8.74228e-08 -8.74228e-08 1 1055.09 67.5001)"/><path d="M1182.5 169.5C1197.07 169.5 1211.65 224.981 1211.65 280.462 1211.65 335.943 1197.88 391.424 1184.12 391.424" stroke="#000000" stroke-width="3" stroke-miterlimit="8" fill="none" fill-rule="evenodd"/><path d="M0 0 31.7391 0.000104987" stroke="#000000" stroke-width="3" stroke-linejoin="round" stroke-miterlimit="10" fill="none" fill-rule="evenodd" transform="matrix(-1 -8.74228e-08 -8.74228e-08 1 693.239 266.5)"/></g></svg>