<svg width="478" height="202" xmlns="http://www.w3.org/2000/svg" xmlns:xlink="http://www.w3.org/1999/xlink" overflow="hidden"><defs><clipPath id="clip0"><path d="M624 121 1102 121 1102 323 624 323Z" fill-rule="evenodd" clip-rule="evenodd"/></clipPath></defs><g clip-path="url(#clip0)" transform="translate(-624 -121)"><path d="M724.5 166.5 758.629 166.5" stroke="#000000" stroke-width="3" stroke-linejoin="round" stroke-miterlimit="10" fill="none" fill-rule="evenodd"/><path d="M724.5 194.5 758.629 194.5" stroke="#000000" stroke-width="3" stroke-linejoin="round" stroke-miterlimit="10" fill="none" fill-rule="evenodd"/><rect x="946.5" y="231.5" width="97.9999" height="28" stroke="#000000" stroke-width="3" stroke-linejoin="round" stroke-miterlimit="10"/><text fill="#FFFFFF" font-family="Arial,Arial_MSFontService,sans-serif" font-weight="400" font-size="16" transform="translate(969.956 251)">Invoice</text><rect x="946.5" y="259.5" width="97.9999" height="29" stroke="#000000" stroke-width="3" stroke-linejoin="round" stroke-miterlimit="10" fill="#FFFFFF"/><text font-family="Arial,Arial_MSFontService,sans-serif" font-weight="400" font-size="16" transform="translate(953.956 280)">CustomerId</text><rect x="946.5" y="288.5" width="97.9999" height="29" stroke="#000000" stroke-width="3" stroke-linejoin="round" stroke-miterlimit="10" fill="#FFFFFF"/><text font-family="Arial,Arial_MSFontService,sans-serif" font-weight="400" font-size="16" transform="translate(955.372 309)">BillingState</text><rect x="946.5" y="123.5" width="97.9999" height="29" stroke="#000000" stroke-width="3" stroke-linejoin="round" stroke-miterlimit="10"/><text fill="#FFFFFF" font-family="Arial,Arial_MSFontService,sans-serif" font-weight="400" font-size="16" transform="translate(969.956 144)">Invoice</text><rect x="946.5" y="151.5" width="97.9999" height="29" stroke="#000000" stroke-width="3" stroke-linejoin="round" stroke-miterlimit="10" fill="#FFFFFF"/><text font-family="Arial,Arial_MSFontService,sans-serif" font-weight="400" font-size="16" transform="translate(953.956 172)">CustomerId</text><rect x="946.5" y="180.5" width="97.9999" height="29" stroke="#000000" stroke-width="3" stroke-linejoin="round" stroke-miterlimit="10" fill="#FFFFFF"/><text font-family="Arial,Arial_MSFontService,sans-serif" font-weight="400" font-size="16" transform="translate(955.372 201)">BillingState</text><path d="M947.139 274.503C935.729 274.503 924.32 247.503 924.32 220.502 924.32 193.501 912.91 166.5 901.5 166.5" stroke="#000000" stroke-width="3" stroke-miterlimit="8" fill="none" fill-rule="evenodd"/><rect x="626.5" y="123.5" width="98" height="29" stroke="#000000" stroke-width="3" stroke-linejoin="round" stroke-miterlimit="10" fill="#EEECE1"/><text font-family="Arial,Arial_MSFontService,sans-serif" font-weight="400" font-size="16" transform="translate(643.954 144)">SELECT</text><rect x="626.5" y="151.5" width="98" height="29" stroke="#000000" stroke-width="3" stroke-linejoin="round" stroke-miterlimit="10" fill="#FFFFFF"/><text font-family="Arial,Arial_MSFontService,sans-serif" font-weight="400" font-size="16" transform="translate(633.787 172)">CustomerId</text><rect x="626.5" y="180.5" width="98" height="29" stroke="#000000" stroke-width="3" stroke-linejoin="round" stroke-miterlimit="10" fill="#FFFFFF"/><text font-family="Arial,Arial_MSFontService,sans-serif" font-weight="400" font-size="16" transform="translate(638.203 201)">FirstName</text><rect x="626.5" y="209.5" width="98" height="28" stroke="#000000" stroke-width="3" stroke-linejoin="round" stroke-miterlimit="10" fill="#FFFFFF"/><text font-family="Arial,Arial_MSFontService,sans-serif" font-weight="400" font-size="16" transform="translate(638.704 229)">LastName</text><rect x="759.5" y="123.5" width="142" height="29" stroke="#000000" stroke-width="3" stroke-linejoin="round" stroke-miterlimit="10"/><text fill="#FFFFFF" font-family="Arial,Arial_MSFontService,sans-serif" font-weight="400" font-size="16" transform="translate(795.046 144)">Customer</text><rect x="759.5" y="151.5" width="142" height="29" stroke="#000000" stroke-width="3" stroke-linejoin="round" stroke-miterlimit="10" fill="#FFFFFF"/><text font-family="Arial,Arial_MSFontService,sans-serif" font-weight="400" font-size="16" transform="translate(788.379 172)">CustomerId</text><rect x="759.5" y="180.5" width="142" height="29" stroke="#000000" stroke-width="3" stroke-linejoin="round" stroke-miterlimit="10" fill="#FFFFFF"/><text font-family="Arial,Arial_MSFontService,sans-serif" font-weight="400" font-size="16" transform="translate(792.796 201)">FirstName</text><rect x="759.5" y="209.5" width="142" height="28" stroke="#000000" stroke-width="3" stroke-linejoin="round" stroke-miterlimit="10" fill="#FFFFFF"/><text font-family="Arial,Arial_MSFontService,sans-serif" font-weight="400" font-size="16" transform="translate(793.296 229)">LastName</text><rect x="759.5" y="237.5" width="142" height="29" stroke="#000000" stroke-width="3" stroke-linejoin="round" stroke-miterlimit="10" fill="#FFFFA3"/><text font-family="Arial,Arial_MSFontService,sans-serif" font-weight="400" font-size="16" transform="translate(766.963 258)">State = 'Michigan'</text><path d="M724.5 223.5 758.629 223.5" stroke="#000000" stroke-width="3" stroke-linejoin="round" stroke-miterlimit="10" fill="none" fill-rule="evenodd"/><path d="M901.5 166.5 947.139 166.5" stroke="#000000" stroke-width="3" stroke-linejoin="round" stroke-miterlimit="10" fill="none" fill-rule="evenodd"/><path d="M1044.5 194.5C1055.96 194.5 1067.42 221.612 1067.42 248.723 1067.42 275.835 1056.63 302.946 1045.83 302.946" stroke="#000000" stroke-width="3" stroke-linejoin="round" stroke-miterlimit="10" fill="none" fill-rule="evenodd"/><text font-family="Arial,Arial_MSFontService,sans-serif" font-weight="700" font-size="16" transform="translate(1072.95 258)">&lt;&gt;</text></g></svg>