<svg width="542" height="371" xmlns="http://www.w3.org/2000/svg" xmlns:xlink="http://www.w3.org/1999/xlink" overflow="hidden"><defs><clipPath id="clip0"><path d="M494 132 1036 132 1036 503 494 503Z" fill-rule="evenodd" clip-rule="evenodd"/></clipPath></defs><g clip-path="url(#clip0)" transform="translate(-494 -132)"><path d="M831.5 315.5 907.013 315.5" stroke="#000000" stroke-width="3" stroke-linejoin="round" stroke-miterlimit="10" fill="none" fill-rule="evenodd"/><path d="M576.5 315.5 601.873 315.5" stroke="#000000" stroke-width="3" stroke-linejoin="round" stroke-miterlimit="10" fill="none" fill-rule="evenodd"/><path d="M576.5 287.5 601.873 287.5" stroke="#000000" stroke-width="3" stroke-linejoin="round" stroke-miterlimit="10" fill="none" fill-rule="evenodd"/><path d="M0 0C8.52089 0 17.0418 27.1594 17.0418 54.3188 17.0418 81.4782 25.5627 108.638 34.0836 108.638" stroke="#000000" stroke-width="3" stroke-miterlimit="8" fill="none" fill-rule="evenodd" transform="matrix(-1 -8.74228e-08 -8.74228e-08 1 721.584 178.5)"/><rect x="497.5" y="244.5" width="79" height="29" stroke="#000000" stroke-width="3" stroke-linejoin="round" stroke-miterlimit="10" fill="#EEECE1"/><text font-family="Arial,Arial_MSFontService,sans-serif" font-weight="400" font-size="16" transform="translate(505.552 265)">SELECT</text><rect x="497.5" y="272.5" width="79" height="29" stroke="#000000" stroke-width="3" stroke-linejoin="round" stroke-miterlimit="10" fill="#FFFFFF"/><text font-family="Arial,Arial_MSFontService,sans-serif" font-weight="400" font-size="16" transform="translate(504.719 293)">PlaylistId</text><rect x="497.5" y="300.5" width="79" height="29" stroke="#000000" stroke-width="3" stroke-linejoin="round" stroke-miterlimit="10" fill="#FFFFFF"/><text font-family="Arial,Arial_MSFontService,sans-serif" font-weight="400" font-size="16" transform="translate(515.386 321)">Name</text><rect x="602.5" y="244.5" width="85" height="29" stroke="#000000" stroke-width="3" stroke-linejoin="round" stroke-miterlimit="10"/><text fill="#FFFFFF" font-family="Arial,Arial_MSFontService,sans-serif" font-weight="400" font-size="16" transform="translate(618.963 265)">Playlist</text><rect x="602.5" y="272.5" width="85" height="29" stroke="#000000" stroke-width="3" stroke-linejoin="round" stroke-miterlimit="10" fill="#FFFFFF"/><text font-family="Arial,Arial_MSFontService,sans-serif" font-weight="400" font-size="16" transform="translate(612.296 293)">PlaylistId</text><rect x="602.5" y="300.5" width="85" height="29" stroke="#000000" stroke-width="3" stroke-linejoin="round" stroke-miterlimit="10" fill="#FFFFFF"/><text font-family="Arial,Arial_MSFontService,sans-serif" font-weight="400" font-size="16" transform="translate(622.963 321)">Name</text><path d="M721.584 426.557C713.063 426.557 704.542 391.793 704.542 357.029 704.542 322.264 696.021 287.5 687.5 287.5" stroke="#000000" stroke-width="3" stroke-miterlimit="8" fill="none" fill-rule="evenodd"/><path d="M831.5 315.5C843.5 315.5 855.5 350.4 855.5 385.3 855.5 420.201 844.167 455.101 832.833 455.101" stroke="#000000" stroke-width="3" stroke-miterlimit="8" fill="none" fill-rule="evenodd"/><rect x="721.5" y="382.5" width="110" height="29" stroke="#000000" stroke-width="3" stroke-linejoin="round" stroke-miterlimit="10"/><text fill="#FFFFFF" font-family="Arial,Arial_MSFontService,sans-serif" font-weight="400" font-size="16" transform="translate(730.852 403)">PlaylistTrack</text><rect x="721.5" y="411.5" width="110" height="29" stroke="#000000" stroke-width="3" stroke-linejoin="round" stroke-miterlimit="10" fill="#FFFFFF"/><text font-family="Arial,Arial_MSFontService,sans-serif" font-weight="400" font-size="16" transform="translate(743.889 432)">PlaylistId</text><rect x="721.5" y="440.5" width="110" height="29" stroke="#000000" stroke-width="3" stroke-linejoin="round" stroke-miterlimit="10" fill="#FFFFFF"/><text font-family="Arial,Arial_MSFontService,sans-serif" font-weight="400" font-size="16" transform="translate(749.436 461)">TrackId</text><rect x="721.5" y="244.5" width="110" height="29" stroke="#000000" stroke-width="3" stroke-linejoin="round" stroke-miterlimit="10"/><text fill="#FFFFFF" font-family="Arial,Arial_MSFontService,sans-serif" font-weight="400" font-size="16" transform="translate(730.852 265)">PlaylistTrack</text><rect x="721.5" y="272.5" width="110" height="29" stroke="#000000" stroke-width="3" stroke-linejoin="round" stroke-miterlimit="10" fill="#FFFFFF"/><text font-family="Arial,Arial_MSFontService,sans-serif" font-weight="400" font-size="16" transform="translate(743.889 293)">PlaylistId</text><rect x="721.5" y="300.5" width="110" height="29" stroke="#000000" stroke-width="3" stroke-linejoin="round" stroke-miterlimit="10" fill="#FFFFFF"/><text font-family="Arial,Arial_MSFontService,sans-serif" font-weight="400" font-size="16" transform="translate(749.436 321)">TrackId</text><rect x="721.5" y="134.5" width="110" height="29" stroke="#000000" stroke-width="3" stroke-linejoin="round" stroke-miterlimit="10"/><text fill="#FFFFFF" font-family="Arial,Arial_MSFontService,sans-serif" font-weight="400" font-size="16" transform="translate(730.852 155)">PlaylistTrack</text><rect x="721.5" y="163.5" width="110" height="29" stroke="#000000" stroke-width="3" stroke-linejoin="round" stroke-miterlimit="10" fill="#FFFFFF"/><text font-family="Arial,Arial_MSFontService,sans-serif" font-weight="400" font-size="16" transform="translate(743.889 184)">PlaylistId</text><rect x="721.5" y="192.5" width="110" height="29" stroke="#000000" stroke-width="3" stroke-linejoin="round" stroke-miterlimit="10" fill="#FFFFFF"/><text font-family="Arial,Arial_MSFontService,sans-serif" font-weight="400" font-size="16" transform="translate(749.436 213)">TrackId</text><path d="M687.5 287.5 721.584 287.5" stroke="#000000" stroke-width="3" stroke-linejoin="round" stroke-miterlimit="10" fill="none" fill-rule="evenodd"/><rect x="906.5" y="134.5" width="97" height="29" stroke="#000000" stroke-width="3" stroke-linejoin="round" stroke-miterlimit="10"/><text fill="#FFFFFF" font-family="Arial,Arial_MSFontService,sans-serif" font-weight="400" font-size="16" transform="translate(934.681 155)">Track</text><rect x="906.5" y="163.5" width="97" height="29" stroke="#000000" stroke-width="3" stroke-linejoin="round" stroke-miterlimit="10" fill="#FFFFFF"/><text font-family="Arial,Arial_MSFontService,sans-serif" font-weight="400" font-size="16" transform="translate(925.134 184)">AlbumId</text><rect x="906.5" y="192.5" width="97" height="29" stroke="#000000" stroke-width="3" stroke-linejoin="round" stroke-miterlimit="10" fill="#FFFFFF"/><text font-family="Arial,Arial_MSFontService,sans-serif" font-weight="400" font-size="16" transform="translate(928.014 213)">TrackId</text><rect x="906.5" y="244.5" width="97" height="29" stroke="#000000" stroke-width="3" stroke-linejoin="round" stroke-miterlimit="10"/><text fill="#FFFFFF" font-family="Arial,Arial_MSFontService,sans-serif" font-weight="400" font-size="16" transform="translate(934.681 265)">Track</text><rect x="906.5" y="272.5" width="97" height="29" stroke="#000000" stroke-width="3" stroke-linejoin="round" stroke-miterlimit="10" fill="#FFFFFF"/><text font-family="Arial,Arial_MSFontService,sans-serif" font-weight="400" font-size="16" transform="translate(925.134 293)">AlbumId</text><rect x="906.5" y="300.5" width="97" height="29" stroke="#000000" stroke-width="3" stroke-linejoin="round" stroke-miterlimit="10" fill="#FFFFFF"/><text font-family="Arial,Arial_MSFontService,sans-serif" font-weight="400" font-size="16" transform="translate(928.014 321)">TrackId</text><rect x="906.5" y="329.5" width="97" height="29" stroke="#000000" stroke-width="3" stroke-linejoin="round" stroke-miterlimit="10" fill="#FFFFFF"/><text font-family="Arial,Arial_MSFontService,sans-serif" font-weight="400" font-size="16" transform="translate(917.634 350)">Composer</text><rect x="906.5" y="382.5" width="97" height="29" stroke="#000000" stroke-width="3" stroke-linejoin="round" stroke-miterlimit="10"/><text fill="#FFFFFF" font-family="Arial,Arial_MSFontService,sans-serif" font-weight="400" font-size="16" transform="translate(934.681 403)">Track</text><rect x="906.5" y="469.5" width="97" height="29" stroke="#000000" stroke-width="3" stroke-linejoin="round" stroke-miterlimit="10" fill="#FFFFFF"/><text font-family="Arial,Arial_MSFontService,sans-serif" font-weight="400" font-size="16" transform="translate(925.134 490)">AlbumId</text><rect x="906.5" y="440.5" width="97" height="29" stroke="#000000" stroke-width="3" stroke-linejoin="round" stroke-miterlimit="10" fill="#FFFFFF"/><text font-family="Arial,Arial_MSFontService,sans-serif" font-weight="400" font-size="16" transform="translate(928.014 461)">TrackId</text><rect x="906.5" y="411.5" width="97" height="29" stroke="#000000" stroke-width="3" stroke-linejoin="round" stroke-miterlimit="10" fill="#FFFFFF"/><text font-family="Arial,Arial_MSFontService,sans-serif" font-weight="400" font-size="16" transform="translate(917.634 432)">Composer</text><path d="M0 0C8.94542 0 17.891 27.109 17.891 54.2181 17.891 81.3271 9.61214 108.436 1.33333 108.436" stroke="#000000" stroke-width="3" stroke-miterlimit="8" fill="none" fill-rule="evenodd" transform="matrix(1 0 0 -1 831.5 314.936)"/><path d="M831.5 206.5 907.013 206.5" stroke="#000000" stroke-width="3" stroke-linejoin="round" stroke-miterlimit="10" fill="none" fill-rule="evenodd"/><path d="M1003.5 287.5C1018.99 287.5 1034.48 336.664 1034.48 385.829 1034.48 434.993 1019.66 484.157 1004.83 484.157" stroke="#000000" stroke-width="3" stroke-miterlimit="8" fill="none" fill-rule="evenodd"/><path d="M0 0C12 0 24 27.1594 24 54.3188 24 81.4782 12.6667 108.638 1.33333 108.638" stroke="#000000" stroke-width="3" stroke-miterlimit="8" fill="none" fill-rule="evenodd" transform="matrix(1 0 0 -1 1003.5 287.138)"/><path d="M0 0C9.38185 0 18.7637 20.5002 18.7637 41.0004 18.7637 61.5005 10.0485 82.0007 1.33333 82.0007" stroke="#000000" stroke-width="3" stroke-miterlimit="8" fill="none" fill-rule="evenodd" transform="matrix(1 0 0 -1 1003.5 426.501)"/><text font-family="Arial,Arial_MSFontService,sans-serif" font-weight="700" font-size="16" transform="translate(854.125 279)">&lt;&gt;<tspan x="0" y="88">&lt;&gt;</tspan></text><path d="M0 0C29.0182 0 58.0363 62.0092 58.0363 124.018 58.0363 186.028 29.6848 248.037 1.33333 248.037" stroke="#000000" stroke-width="3" stroke-miterlimit="8" fill="none" fill-rule="evenodd" transform="matrix(1 0 0 -1 831.5 454.537)"/><text font-family="Arial,Arial_MSFontService,sans-serif" font-weight="700" font-size="16" transform="translate(881.493 254)">&lt;&gt;</text><path d="M831.5 454.5 907.013 454.5" stroke="#000000" stroke-width="3" stroke-linejoin="round" stroke-miterlimit="10" fill="none" fill-rule="evenodd"/></g></svg>