<svg width="621" height="210" xmlns="http://www.w3.org/2000/svg" xmlns:xlink="http://www.w3.org/1999/xlink" overflow="hidden"><defs><clipPath id="clip0"><path d="M465 216 1086 216 1086 426 465 426Z" fill-rule="evenodd" clip-rule="evenodd"/></clipPath></defs><g clip-path="url(#clip0)" transform="translate(-465 -216)"><rect x="468.5" y="218.5" width="147" height="29" stroke="#000000" stroke-width="3" stroke-linejoin="round" stroke-miterlimit="10" fill="#EEECE1"/><text font-family="Arial,Arial_MSFontService,sans-serif" font-weight="400" font-size="16" transform="translate(510.505 239)">SELECT</text><rect x="468.5" y="247.5" width="147" height="29" stroke="#000000" stroke-width="3" stroke-linejoin="round" stroke-miterlimit="10" fill="#FFFFFF"/><text font-family="Arial,Arial_MSFontService,sans-serif" font-weight="400" font-size="16" transform="translate(512.339 268)">AlbumId</text><rect x="468.5" y="276.5" width="147" height="29" stroke="#000000" stroke-width="3" stroke-linejoin="round" stroke-miterlimit="10" fill="#FFFFFF"/><text font-family="Arial,Arial_MSFontService,sans-serif" font-weight="400" font-size="16" transform="translate(475.589 297)">MAX(Milliseconds)</text><rect x="841.5" y="334.5" width="147" height="29" stroke="#000000" stroke-width="3" stroke-linejoin="round" stroke-miterlimit="10"/><text fill="#FFFFFF" font-family="Arial,Arial_MSFontService,sans-serif" font-weight="400" font-size="16" transform="translate(892.06 355)">Genre</text><rect x="841.5" y="363.5" width="147" height="29" stroke="#000000" stroke-width="3" stroke-linejoin="round" stroke-miterlimit="10" fill="#FFFFFF"/><text font-family="Arial,Arial_MSFontService,sans-serif" font-weight="400" font-size="16" transform="translate(885.291 384)">GenreId</text><rect x="841.5" y="392.5" width="147" height="28" stroke="#000000" stroke-width="3" stroke-linejoin="round" stroke-miterlimit="10" fill="#FFFFA3"/><text font-family="Arial,Arial_MSFontService,sans-serif" font-weight="400" font-size="16" transform="translate(848.976 412)">Name = 'Classical'</text><rect x="994.5" y="218.5" width="88.9999" height="29" stroke="#000000" stroke-width="3" stroke-linejoin="round" stroke-miterlimit="10"/><text fill="#FFFFFF" font-family="Arial,Arial_MSFontService,sans-serif" font-weight="400" font-size="16" transform="translate(1013.55 239)">Playlist</text><rect x="994.5" y="247.5" width="88.9999" height="29" stroke="#000000" stroke-width="3" stroke-linejoin="round" stroke-miterlimit="10" fill="#FFFFFF"/><text font-family="Arial,Arial_MSFontService,sans-serif" font-weight="400" font-size="16" transform="translate(1006.88 268)">PlaylistId</text><rect x="841.5" y="218.5" width="117" height="29" stroke="#000000" stroke-width="3" stroke-linejoin="round" stroke-miterlimit="10"/><text fill="#FFFFFF" font-family="Arial,Arial_MSFontService,sans-serif" font-weight="400" font-size="16" transform="translate(854.354 239)">PlaylistTrack</text><rect x="841.5" y="247.5" width="117" height="29" stroke="#000000" stroke-width="3" stroke-linejoin="round" stroke-miterlimit="10" fill="#FFFFFF"/><text font-family="Arial,Arial_MSFontService,sans-serif" font-weight="400" font-size="16" transform="translate(867.472 268)">PlaylistId</text><rect x="841.5" y="276.5" width="117" height="29" stroke="#000000" stroke-width="3" stroke-linejoin="round" stroke-miterlimit="10" fill="#FFFFFF"/><text font-family="Arial,Arial_MSFontService,sans-serif" font-weight="400" font-size="16" transform="translate(873.019 297)">TrackId</text><rect x="650.5" y="218.5" width="154" height="29" stroke="#000000" stroke-width="3" stroke-linejoin="round" stroke-miterlimit="10"/><text fill="#FFFFFF" font-family="Arial,Arial_MSFontService,sans-serif" font-weight="400" font-size="16" transform="translate(707.487 239)">Track</text><rect x="650.5" y="276.5" width="154" height="29" stroke="#000000" stroke-width="3" stroke-linejoin="round" stroke-miterlimit="10" fill="#FFFFFF"/><text font-family="Arial,Arial_MSFontService,sans-serif" font-weight="400" font-size="16" transform="translate(700.821 297)">TrackId</text><rect x="650.5" y="305.5" width="154" height="29" stroke="#000000" stroke-width="3" stroke-linejoin="round" stroke-miterlimit="10" fill="#FFFFFF"/><text font-family="Arial,Arial_MSFontService,sans-serif" font-weight="400" font-size="16" transform="translate(698.357 326)">GenreId</text><rect x="650.5" y="247.5" width="154" height="29" stroke="#000000" stroke-width="3" stroke-linejoin="round" stroke-miterlimit="10" fill="#D9D9D9"/><text font-family="Arial,Arial_MSFontService,sans-serif" font-weight="400" font-size="16" transform="translate(697.941 268)">AlbumId</text><rect x="650.5" y="334.5" width="154" height="29" stroke="#000000" stroke-width="3" stroke-linejoin="round" stroke-miterlimit="10" fill="#FFFFFF"/><text font-family="Arial,Arial_MSFontService,sans-serif" font-weight="400" font-size="16" transform="translate(661.191 355)">MAX(Milliseconds)</text><path d="M615.5 261.5 650.773 261.5" stroke="#000000" stroke-width="3" stroke-linejoin="round" stroke-miterlimit="10" fill="none" fill-rule="evenodd"/><path d="M841.07 377.678C831.928 377.678 822.785 363.134 822.785 348.589 822.785 334.045 813.643 319.5 804.5 319.5" stroke="#000000" stroke-width="3" stroke-linejoin="round" stroke-miterlimit="10" fill="none" fill-rule="evenodd"/><path d="M804.5 290.5 841.071 290.5" stroke="#000000" stroke-width="3" stroke-linejoin="round" stroke-miterlimit="10" fill="none" fill-rule="evenodd"/><path d="M958.5 261.5 994.444 261.5" stroke="#000000" stroke-width="3" stroke-linejoin="round" stroke-miterlimit="10" fill="none" fill-rule="evenodd"/><path d="M615.5 290.5C624.318 290.5 633.137 305.064 633.137 319.627 633.137 334.191 641.955 348.755 650.773 348.755" stroke="#000000" stroke-width="3" stroke-linejoin="round" stroke-miterlimit="10" fill="none" fill-rule="evenodd"/></g></svg>