<svg width="931" height="209" xmlns="http://www.w3.org/2000/svg" xmlns:xlink="http://www.w3.org/1999/xlink" overflow="hidden"><defs><clipPath id="clip0"><path d="M231 251 1162 251 1162 460 231 460Z" fill-rule="evenodd" clip-rule="evenodd"/></clipPath></defs><g clip-path="url(#clip0)" transform="translate(-231 -251)"><path d="M0 0 32.6206 0.000104987" stroke="#000000" stroke-width="3" stroke-linejoin="round" stroke-miterlimit="10" fill="none" fill-rule="evenodd" transform="matrix(-1 -8.74228e-08 -8.74228e-08 1 1015.12 412.5)"/><path d="M0 0 33.0553 0.000104987" stroke="#000000" stroke-width="3" stroke-linejoin="round" stroke-miterlimit="10" fill="none" fill-rule="evenodd" transform="matrix(-1 -8.74228e-08 -8.74228e-08 1 869.555 296.5)"/><path d="M0 0 33.0553 0.000104987" stroke="#000000" stroke-width="3" stroke-linejoin="round" stroke-miterlimit="10" fill="none" fill-rule="evenodd" transform="matrix(-1 -8.74228e-08 -8.74228e-08 1 541.555 296.5)"/><path d="M0 0 32.8896 0.000104987" stroke="#000000" stroke-width="3" stroke-linejoin="round" stroke-miterlimit="10" fill="none" fill-rule="evenodd" transform="matrix(-1 -8.74228e-08 -8.74228e-08 1 425.39 325.5)"/><rect x="235.5" y="282.5" width="157" height="28" stroke="#000000" stroke-width="3" stroke-linejoin="round" stroke-miterlimit="10" fill="#EEECE1"/><text font-family="Arial,Arial_MSFontService,sans-serif" font-weight="400" font-size="16" transform="translate(282.589 302)">SELECT</text><rect x="235.5" y="310.5" width="157" height="29" stroke="#000000" stroke-width="3" stroke-linejoin="round" stroke-miterlimit="10" fill="#FFFFFF"/><text font-family="Arial,Arial_MSFontService,sans-serif" font-weight="400" font-size="16" transform="translate(292.422 331)">Name</text><rect x="235.5" y="339.5" width="157" height="29" stroke="#000000" stroke-width="3" stroke-linejoin="round" stroke-miterlimit="10" fill="#FFFFFF"/><text font-family="Arial,Arial_MSFontService,sans-serif" font-weight="400" font-size="16" transform="translate(241.392 360)">MAX(T.Milliseconds<tspan x="139.227" y="0">)</tspan></text><rect x="731.5" y="253.5" width="105" height="29" stroke="#000000" stroke-width="3" stroke-linejoin="round" stroke-miterlimit="10"/><text fill="#FFFFFF" font-family="Arial,Arial_MSFontService,sans-serif" font-weight="400" font-size="16" transform="translate(738.229 274)">PlaylistTrack</text><rect x="731.5" y="282.5" width="105" height="28" stroke="#000000" stroke-width="3" stroke-linejoin="round" stroke-miterlimit="10" fill="#FFFFFF"/><text font-family="Arial,Arial_MSFontService,sans-serif" font-weight="400" font-size="16" transform="translate(751.266 302)">PlaylistId</text><rect x="731.5" y="310.5" width="105" height="29" stroke="#000000" stroke-width="3" stroke-linejoin="round" stroke-miterlimit="10" fill="#FFFFFF"/><text font-family="Arial,Arial_MSFontService,sans-serif" font-weight="400" font-size="16" transform="translate(756.813 331)">TrackId</text><rect x="541.5" y="253.5" width="158" height="29" stroke="#000000" stroke-width="3" stroke-linejoin="round" stroke-miterlimit="10"/><text fill="#FFFFFF" font-family="Arial,Arial_MSFontService,sans-serif" font-weight="400" font-size="16" transform="translate(600.258 274)">Track</text><rect x="541.5" y="310.5" width="158" height="29" stroke="#000000" stroke-width="3" stroke-linejoin="round" stroke-miterlimit="10" fill="#FFFFFF"/><text font-family="Arial,Arial_MSFontService,sans-serif" font-weight="400" font-size="16" transform="translate(593.591 331)">TrackId</text><rect x="541.5" y="282.5" width="158" height="28" stroke="#000000" stroke-width="3" stroke-linejoin="round" stroke-miterlimit="10" fill="#FFFFFF"/><text font-family="Arial,Arial_MSFontService,sans-serif" font-weight="400" font-size="16" transform="translate(591.128 302)">GenreId</text><rect x="541.5" y="339.5" width="158" height="29" stroke="#000000" stroke-width="3" stroke-linejoin="round" stroke-miterlimit="10" fill="#FFFFFF"/><text font-family="Arial,Arial_MSFontService,sans-serif" font-weight="400" font-size="16" transform="translate(547.681 360)">MAX(T.Milliseconds<tspan x="139.227" y="0">)</tspan></text><rect x="731.5" y="369.5" width="105" height="29" stroke="#000000" stroke-width="3" stroke-linejoin="round" stroke-miterlimit="10"/><text fill="#FFFFFF" font-family="Arial,Arial_MSFontService,sans-serif" font-weight="400" font-size="16" transform="translate(742.933 390)">InvoiceLine</text><rect x="731.5" y="397.5" width="105" height="29" stroke="#000000" stroke-width="3" stroke-linejoin="round" stroke-miterlimit="10" fill="#FFFFFF"/><text font-family="Arial,Arial_MSFontService,sans-serif" font-weight="400" font-size="16" transform="translate(756.813 418)">TrackId</text><rect x="731.5" y="426.5" width="105" height="29" stroke="#000000" stroke-width="3" stroke-linejoin="round" stroke-miterlimit="10" fill="#FFFFFF"/><text font-family="Arial,Arial_MSFontService,sans-serif" font-weight="400" font-size="16" transform="translate(751.266 447)">InvoiceId</text><rect x="869.5" y="369.5" width="113" height="29" stroke="#000000" stroke-width="3" stroke-linejoin="round" stroke-miterlimit="10"/><text fill="#FFFFFF" font-family="Arial,Arial_MSFontService,sans-serif" font-weight="400" font-size="16" transform="translate(899.85 390)">Invoice</text><rect x="869.5" y="397.5" width="113" height="29" stroke="#000000" stroke-width="3" stroke-linejoin="round" stroke-miterlimit="10" fill="#FFFFFF"/><text font-family="Arial,Arial_MSFontService,sans-serif" font-weight="400" font-size="16" transform="translate(883.85 418)">CustomerId</text><rect x="869.5" y="426.5" width="113" height="29" stroke="#000000" stroke-width="3" stroke-linejoin="round" stroke-miterlimit="10" fill="#FFFFFF"/><text font-family="Arial,Arial_MSFontService,sans-serif" font-weight="400" font-size="16" transform="translate(893.184 447)">InvoiceId</text><path d="M731.629 412.599C723.597 412.599 715.565 390.824 715.565 369.05 715.565 347.275 707.532 325.5 699.5 325.5" stroke="#000000" stroke-width="3" stroke-linejoin="round" stroke-miterlimit="10" fill="none" fill-rule="evenodd"/><rect x="425.5" y="253.5" width="83" height="29" stroke="#000000" stroke-width="3" stroke-linejoin="round" stroke-miterlimit="10"/><text fill="#FFFFFF" font-family="Arial,Arial_MSFontService,sans-serif" font-weight="400" font-size="16" transform="translate(444.415 274)">Genre</text><rect x="425.5" y="282.5" width="83" height="28" stroke="#000000" stroke-width="3" stroke-linejoin="round" stroke-miterlimit="10" fill="#FFFFFF"/><text font-family="Arial,Arial_MSFontService,sans-serif" font-weight="400" font-size="16" transform="translate(437.763 302)">GenreId</text><rect x="425.5" y="310.5" width="83" height="29" stroke="#000000" stroke-width="3" stroke-linejoin="round" stroke-miterlimit="10" fill="#D9D9D9"/><text font-family="Arial,Arial_MSFontService,sans-serif" font-weight="400" font-size="16" transform="translate(445.346 331)">Name</text><rect x="869.5" y="253.5" width="139" height="29" stroke="#000000" stroke-width="3" stroke-linejoin="round" stroke-miterlimit="10"/><text fill="#FFFFFF" font-family="Arial,Arial_MSFontService,sans-serif" font-weight="400" font-size="16" transform="translate(912.914 274)">Playlist</text><rect x="869.5" y="282.5" width="139" height="28" stroke="#000000" stroke-width="3" stroke-linejoin="round" stroke-miterlimit="10" fill="none"/><text font-family="Arial,Arial_MSFontService,sans-serif" font-weight="400" font-size="16" transform="translate(906.247 302)">PlaylistId</text><rect x="869.5" y="310.5" width="139" height="29" stroke="#000000" stroke-width="3" stroke-linejoin="round" stroke-miterlimit="10" fill="#FFFFA3"/><text font-family="Arial,Arial_MSFontService,sans-serif" font-weight="400" font-size="16" transform="translate(876.83 331)">Name = 'workout'</text><path d="M0 0 33.0551 0.000104987" stroke="#000000" stroke-width="3" stroke-linejoin="round" stroke-miterlimit="10" fill="none" fill-rule="evenodd" transform="matrix(-1 -8.74228e-08 -8.74228e-08 1 869.555 440.5)"/><rect x="1014.5" y="369.5" width="144" height="29" stroke="#000000" stroke-width="3" stroke-linejoin="round" stroke-miterlimit="10"/><text fill="#FFFFFF" font-family="Arial,Arial_MSFontService,sans-serif" font-weight="400" font-size="16" transform="translate(1051.76 390)">Customer</text><rect x="1014.5" y="397.5" width="144" height="29" stroke="#000000" stroke-width="3" stroke-linejoin="round" stroke-miterlimit="10" fill="#FFFFFF"/><text font-family="Arial,Arial_MSFontService,sans-serif" font-weight="400" font-size="16" transform="translate(1045.09 418)">CustomerId</text><rect x="1014.5" y="426.5" width="144" height="29" stroke="#000000" stroke-width="3" stroke-linejoin="round" stroke-miterlimit="10" fill="#FFFFA3"/><text font-family="Arial,Arial_MSFontService,sans-serif" font-weight="400" font-size="16" transform="translate(1021.43 447)">Country = 'France'</text><path d="M699.5 325.5 731.629 325.5" stroke="#000000" stroke-width="3" stroke-linejoin="round" stroke-miterlimit="10" fill="none" fill-rule="evenodd"/><path d="M0 0 149.02 0.000104987" stroke="#000000" stroke-width="3" stroke-linejoin="round" stroke-miterlimit="10" fill="none" fill-rule="evenodd" transform="matrix(-1 -8.74228e-08 -8.74228e-08 1 541.52 353.5)"/></g></svg>