<?xml version="1.0" encoding="UTF-8" standalone="no"?>
<!DOCTYPE svg PUBLIC "-//W3C//DTD SVG 1.1//EN"
 "http://www.w3.org/Graphics/SVG/1.1/DTD/svg11.dtd">
<!-- Generated by graphviz version 2.27.20100609.0445 (20100609.0445)
 -->
<!-- Title: QueryViz Pages: 1 -->
<svg width="454pt" height="120pt"
 viewBox="0.00 0.00 454.00 120.00" xmlns="http://www.w3.org/2000/svg" xmlns:xlink="http://www.w3.org/1999/xlink">
<g id="graph1" class="graph" transform="scale(1 1) rotate(0) translate(4 116)">
<title>QueryViz</title>
<polygon fill="white" stroke="white" points="-4,5 -4,-116 451,-116 451,5 -4,5"/>
<!-- select -->
<g id="node1" class="node"><title>select</title>
<polygon fill="gray" stroke="gray" points="8,-55 8,-82 84,-82 84,-55 8,-55"/>
<polygon fill="none" stroke="black" points="8,-55 8,-82 84,-82 84,-55 8,-55"/>
<text text-anchor="start" x="13.5" y="-64.7667" font-family="Times New Roman,serif" font-size="16.00"> </text>
<text text-anchor="start" x="17.5" y="-64.7667" font-family="Times New Roman,serif" font-size="16.00" fill="white">SELECT</text>
<text text-anchor="start" x="74.5" y="-64.7667" font-family="Times New Roman,serif" font-size="16.00"> </text>
<polygon fill="none" stroke="black" points="8,-29 8,-55 84,-55 84,-29 8,-29"/>
<text text-anchor="start" x="27.5" y="-38.2667" font-family="Times New Roman,serif" font-size="16.00">Name</text>
</g>
<!-- d -->
<g id="node2" class="node"><title>d</title>
<polygon fill="black" stroke="black" points="137,-81 137,-108 266,-108 266,-81 137,-81"/>
<polygon fill="none" stroke="black" points="137,-81 137,-108 266,-108 266,-81 137,-81"/>
<text text-anchor="start" x="159.5" y="-90.7667" font-family="Times New Roman,serif" font-size="16.00"> </text>
<text text-anchor="start" x="163.5" y="-90.7667" font-family="Times New Roman,serif" font-size="16.00" fill="white">departments</text>
<text text-anchor="start" x="239.5" y="-90.7667" font-family="Times New Roman,serif" font-size="16.00"> </text>
<polygon fill="none" stroke="black" points="137,-55 137,-81 266,-81 266,-55 137,-55"/>
<text text-anchor="start" x="157" y="-64.2667" font-family="Times New Roman,serif" font-size="16.00">DepartmentID</text>
<polygon fill="none" stroke="black" points="137,-29 137,-55 266,-55 266,-29 137,-29"/>
<text text-anchor="start" x="183" y="-38.2667" font-family="Times New Roman,serif" font-size="16.00">Name</text>
<polygon fill="#fcffa6" stroke="#fcffa6" points="137,-3 137,-29 266,-29 266,-3 137,-3"/>
<polygon fill="none" stroke="black" points="137,-3 137,-29 266,-29 266,-3 137,-3"/>
<text text-anchor="start" x="142.5" y="-12.2667" font-family="Times New Roman,serif" font-size="16.00">Tag = &#39;engineering&#39;</text>
</g>
<!-- select&#45;&gt;d -->
<g id="0" class="edge"><title>select:f0:e&#45;&gt;d:Name:w</title>
<path fill="none" stroke="black" d="M84,-42C107.556,-42 113.444,-42 137,-42"/>
</g>
<!-- program_sheets -->
<g id="node3" class="node"><title>program_sheets</title>
<polygon fill="black" stroke="black" points="319,-81 319,-108 438,-108 438,-81 319,-81"/>
<polygon fill="none" stroke="black" points="319,-81 319,-108 438,-108 438,-81 319,-81"/>
<text text-anchor="start" x="325" y="-90.7667" font-family="Times New Roman,serif" font-size="16.00"> </text>
<text text-anchor="start" x="329" y="-90.7667" font-family="Times New Roman,serif" font-size="16.00" fill="white">program_sheets</text>
<text text-anchor="start" x="428" y="-90.7667" font-family="Times New Roman,serif" font-size="16.00"> </text>
<polygon fill="none" stroke="black" points="319,-55 319,-81 438,-81 438,-55 319,-55"/>
<text text-anchor="start" x="333.5" y="-64.2667" font-family="Times New Roman,serif" font-size="16.00">department_id</text>
<polygon fill="#fcffa6" stroke="#fcffa6" points="319,-29 319,-55 438,-55 438,-29 319,-29"/>
<polygon fill="none" stroke="black" points="319,-29 319,-55 438,-55 438,-29 319,-29"/>
<text text-anchor="start" x="324.5" y="-38.2667" font-family="Times New Roman,serif" font-size="16.00">published = &#39;true&#39;</text>
</g>
<!-- d&#45;&gt;program_sheets -->
<g id="0" class="edge"><title>d:DepartmentID:e&#45;&gt;program_sheets:department_id:w</title>
<path fill="none" stroke="black" d="M266,-68C289.556,-68 295.444,-68 319,-68"/>
</g>
</g>
</svg>
