<?xml version="1.0" encoding="UTF-8" standalone="no"?>
<!DOCTYPE svg PUBLIC "-//W3C//DTD SVG 1.1//EN"
 "http://www.w3.org/Graphics/SVG/1.1/DTD/svg11.dtd">
<!-- Generated by graphviz version 2.27.20100609.0445 (20100609.0445)
 -->
<!-- Title: QueryViz Pages: 1 -->
<svg width="1006pt" height="94pt"
 viewBox="0.00 0.00 1006.00 94.00" xmlns="http://www.w3.org/2000/svg" xmlns:xlink="http://www.w3.org/1999/xlink">
<g id="graph1" class="graph" transform="scale(1 1) rotate(0) translate(4 90)">
<title>QueryViz</title>
<polygon fill="white" stroke="white" points="-4,5 -4,-90 1003,-90 1003,5 -4,5"/>
<!-- select -->
<g id="node1" class="node"><title>select</title>
<polygon fill="gray" stroke="gray" points="8,-55 8,-82 84,-82 84,-55 8,-55"/>
<polygon fill="none" stroke="black" points="8,-55 8,-82 84,-82 84,-55 8,-55"/>
<text text-anchor="start" x="13.5" y="-64.7667" font-family="Times New Roman,serif" font-size="16.00"> </text>
<text text-anchor="start" x="17.5" y="-64.7667" font-family="Times New Roman,serif" font-size="16.00" fill="white">SELECT</text>
<text text-anchor="start" x="74.5" y="-64.7667" font-family="Times New Roman,serif" font-size="16.00"> </text>
<polygon fill="none" stroke="black" points="8,-29 8,-55 84,-55 84,-29 8,-29"/>
<text text-anchor="start" x="31" y="-38.2667" font-family="Times New Roman,serif" font-size="16.00">Title</text>
</g>
<!-- ce -->
<g id="node2" class="node"><title>ce</title>
<polygon fill="black" stroke="black" points="136,-55 136,-82 250,-82 250,-55 136,-55"/>
<polygon fill="none" stroke="black" points="136,-55 136,-82 250,-82 250,-55 136,-55"/>
<text text-anchor="start" x="141.5" y="-64.7667" font-family="Times New Roman,serif" font-size="16.00"> </text>
<text text-anchor="start" x="145.5" y="-64.7667" font-family="Times New Roman,serif" font-size="16.00" fill="white">catalog_entries</text>
<text text-anchor="start" x="240.5" y="-64.7667" font-family="Times New Roman,serif" font-size="16.00"> </text>
<polygon fill="none" stroke="black" points="136,-29 136,-55 250,-55 250,-29 136,-29"/>
<text text-anchor="start" x="178" y="-38.2667" font-family="Times New Roman,serif" font-size="16.00">Title</text>
<polygon fill="none" stroke="black" points="136,-3 136,-29 250,-29 250,-3 136,-3"/>
<text text-anchor="start" x="162" y="-12.2667" font-family="Times New Roman,serif" font-size="16.00">course_id</text>
</g>
<!-- select&#45;&gt;ce -->
<g id="0" class="edge"><title>select:f0:e&#45;&gt;ce:Title:w</title>
<path fill="none" stroke="black" d="M84,-42C107.111,-42 112.889,-42 136,-42"/>
</g>
<!-- sc -->
<g id="node5" class="node"><title>sc</title>
<polygon fill="black" stroke="black" points="303,-55 303,-82 438,-82 438,-55 303,-55"/>
<polygon fill="none" stroke="black" points="303,-55 303,-82 438,-82 438,-55 303,-55"/>
<text text-anchor="start" x="308.5" y="-64.7667" font-family="Times New Roman,serif" font-size="16.00"> </text>
<text text-anchor="start" x="312.5" y="-64.7667" font-family="Times New Roman,serif" font-size="16.00" fill="white">schedules_courses</text>
<text text-anchor="start" x="428.5" y="-64.7667" font-family="Times New Roman,serif" font-size="16.00"> </text>
<polygon fill="none" stroke="black" points="303,-29 303,-55 438,-55 438,-29 303,-29"/>
<text text-anchor="start" x="333" y="-38.2667" font-family="Times New Roman,serif" font-size="16.00">schedule_id</text>
<polygon fill="none" stroke="black" points="303,-3 303,-29 438,-29 438,-3 303,-3"/>
<text text-anchor="start" x="339.5" y="-12.2667" font-family="Times New Roman,serif" font-size="16.00">course_id</text>
</g>
<!-- ce&#45;&gt;sc -->
<g id="3" class="edge"><title>ce:course_id:e&#45;&gt;sc:course_id:w</title>
<path fill="none" stroke="black" d="M250,-16C273.556,-16 279.444,-16 303,-16"/>
</g>
<!-- i -->
<g id="node3" class="node"><title>i</title>
<polygon fill="black" stroke="black" points="856,-55 856,-82 990,-82 990,-55 856,-55"/>
<polygon fill="none" stroke="black" points="856,-55 856,-82 990,-82 990,-55 856,-55"/>
<text text-anchor="start" x="885.5" y="-64.7667" font-family="Times New Roman,serif" font-size="16.00"> </text>
<text text-anchor="start" x="889.5" y="-64.7667" font-family="Times New Roman,serif" font-size="16.00" fill="white">instructors</text>
<text text-anchor="start" x="956.5" y="-64.7667" font-family="Times New Roman,serif" font-size="16.00"> </text>
<polygon fill="none" stroke="black" points="856,-29 856,-55 990,-55 990,-29 856,-29"/>
<text text-anchor="start" x="884.5" y="-38.2667" font-family="Times New Roman,serif" font-size="16.00">InstructorID</text>
<polygon fill="#fcffa6" stroke="#fcffa6" points="856,-3 856,-29 990,-29 990,-3 856,-3"/>
<polygon fill="none" stroke="black" points="856,-3 856,-29 990,-29 990,-3 856,-3"/>
<text text-anchor="start" x="861.5" y="-12.2667" font-family="Times New Roman,serif" font-size="16.00">LastName = &#39;Smith&#39;</text>
</g>
<!-- ih -->
<g id="node4" class="node"><title>ih</title>
<polygon fill="black" stroke="black" points="681,-55 681,-82 804,-82 804,-55 681,-55"/>
<polygon fill="none" stroke="black" points="681,-55 681,-82 804,-82 804,-55 681,-55"/>
<text text-anchor="start" x="686.5" y="-64.7667" font-family="Times New Roman,serif" font-size="16.00"> </text>
<text text-anchor="start" x="690.5" y="-64.7667" font-family="Times New Roman,serif" font-size="16.00" fill="white">instructorhistory</text>
<text text-anchor="start" x="794.5" y="-64.7667" font-family="Times New Roman,serif" font-size="16.00"> </text>
<polygon fill="none" stroke="black" points="681,-29 681,-55 804,-55 804,-29 681,-29"/>
<text text-anchor="start" x="704" y="-38.2667" font-family="Times New Roman,serif" font-size="16.00">InstructorID</text>
<polygon fill="none" stroke="black" points="681,-3 681,-29 804,-29 804,-3 681,-3"/>
<text text-anchor="start" x="688.5" y="-12.2667" font-family="Times New Roman,serif" font-size="16.00">CourseSectionID</text>
</g>
<!-- ih&#45;&gt;i -->
<g id="0" class="edge"><title>ih:InstructorID:e&#45;&gt;i:InstructorID:w</title>
<path fill="none" stroke="black" d="M804,-42C827.111,-42 832.889,-42 856,-42"/>
</g>
<!-- ss -->
<g id="node6" class="node"><title>ss</title>
<polygon fill="black" stroke="black" points="490,-55 490,-82 628,-82 628,-55 490,-55"/>
<polygon fill="none" stroke="black" points="490,-55 490,-82 628,-82 628,-55 490,-55"/>
<text text-anchor="start" x="495.5" y="-64.7667" font-family="Times New Roman,serif" font-size="16.00"> </text>
<text text-anchor="start" x="499.5" y="-64.7667" font-family="Times New Roman,serif" font-size="16.00" fill="white">schedules_sections</text>
<text text-anchor="start" x="618.5" y="-64.7667" font-family="Times New Roman,serif" font-size="16.00"> </text>
<polygon fill="none" stroke="black" points="490,-29 490,-55 628,-55 628,-29 490,-29"/>
<text text-anchor="start" x="521.5" y="-38.2667" font-family="Times New Roman,serif" font-size="16.00">schedule_id</text>
<polygon fill="none" stroke="black" points="490,-3 490,-29 628,-29 628,-3 490,-3"/>
<text text-anchor="start" x="501.5" y="-12.2667" font-family="Times New Roman,serif" font-size="16.00">course_section_id</text>
</g>
<!-- sc&#45;&gt;ss -->
<g id="2" class="edge"><title>sc:schedule_id:e&#45;&gt;ss:schedule_id:w</title>
<path fill="none" stroke="black" d="M438,-42C461.111,-42 466.889,-42 490,-42"/>
</g>
<!-- ss&#45;&gt;ih -->
<g id="1" class="edge"><title>ss:course_section_id:e&#45;&gt;ih:CourseSectionID:w</title>
<path fill="none" stroke="black" d="M628,-16C651.556,-16 657.444,-16 681,-16"/>
</g>
</g>
</svg>
