<?xml version="1.0" encoding="UTF-8" standalone="no"?>
<!DOCTYPE svg PUBLIC "-//W3C//DTD SVG 1.1//EN"
 "http://www.w3.org/Graphics/SVG/1.1/DTD/svg11.dtd">
<!-- Generated by graphviz version 2.27.20100609.0445 (20100609.0445)
 -->
<!-- Title: QueryViz Pages: 1 -->
<svg width="602pt" height="302pt"
 viewBox="0.00 0.00 602.00 302.00" xmlns="http://www.w3.org/2000/svg" xmlns:xlink="http://www.w3.org/1999/xlink">
<g id="graph1" class="graph" transform="scale(1 1) rotate(0) translate(4 298)">
<title>QueryViz</title>
<polygon fill="white" stroke="white" points="-4,5 -4,-298 599,-298 599,5 -4,5"/>
<!-- select -->
<g id="node1" class="node"><title>select</title>
<polygon fill="gray" stroke="gray" points="8,-107 8,-134 84,-134 84,-107 8,-107"/>
<polygon fill="none" stroke="black" points="8,-107 8,-134 84,-134 84,-107 8,-107"/>
<text text-anchor="start" x="13.5" y="-116.767" font-family="Times New Roman,serif" font-size="16.00"> </text>
<text text-anchor="start" x="17.5" y="-116.767" font-family="Times New Roman,serif" font-size="16.00" fill="white">SELECT</text>
<text text-anchor="start" x="74.5" y="-116.767" font-family="Times New Roman,serif" font-size="16.00"> </text>
<polygon fill="none" stroke="black" points="8,-81 8,-107 84,-107 84,-81 8,-81"/>
<text text-anchor="start" x="32" y="-90.2667" font-family="Times New Roman,serif" font-size="16.00">Text</text>
</g>
<!-- q -->
<g id="node3" class="node"><title>q</title>
<polygon fill="black" stroke="black" points="136,-159 136,-186 220,-186 220,-159 136,-159"/>
<polygon fill="none" stroke="black" points="136,-159 136,-186 220,-186 220,-159 136,-159"/>
<text text-anchor="start" x="144" y="-168.767" font-family="Times New Roman,serif" font-size="16.00"> </text>
<text text-anchor="start" x="148" y="-168.767" font-family="Times New Roman,serif" font-size="16.00" fill="white">questions</text>
<text text-anchor="start" x="208" y="-168.767" font-family="Times New Roman,serif" font-size="16.00"> </text>
<polygon fill="none" stroke="black" points="136,-133 136,-159 220,-159 220,-133 136,-133"/>
<text text-anchor="start" x="141.5" y="-142.267" font-family="Times New Roman,serif" font-size="16.00">QuestionID</text>
<polygon fill="none" stroke="black" points="136,-107 136,-133 220,-133 220,-107 136,-107"/>
<text text-anchor="start" x="146" y="-116.267" font-family="Times New Roman,serif" font-size="16.00">StudentID</text>
<polygon fill="none" stroke="black" points="136,-81 136,-107 220,-107 220,-81 136,-81"/>
<text text-anchor="start" x="164" y="-90.2667" font-family="Times New Roman,serif" font-size="16.00">Text</text>
</g>
<!-- select&#45;&gt;q -->
<g id="0" class="edge"><title>select:f0:e&#45;&gt;q:Text:w</title>
<path fill="none" stroke="black" d="M84,-94C107.111,-94 112.889,-94 136,-94"/>
</g>
<!-- i -->
<g id="node2" class="node"><title>i</title>
<polygon fill="black" stroke="black" points="452,-237 452,-264 586,-264 586,-237 452,-237"/>
<polygon fill="none" stroke="black" points="452,-237 452,-264 586,-264 586,-237 452,-237"/>
<text text-anchor="start" x="481.5" y="-246.767" font-family="Times New Roman,serif" font-size="16.00"> </text>
<text text-anchor="start" x="485.5" y="-246.767" font-family="Times New Roman,serif" font-size="16.00" fill="white">instructors</text>
<text text-anchor="start" x="552.5" y="-246.767" font-family="Times New Roman,serif" font-size="16.00"> </text>
<polygon fill="none" stroke="black" points="452,-211 452,-237 586,-237 586,-211 452,-211"/>
<text text-anchor="start" x="480.5" y="-220.267" font-family="Times New Roman,serif" font-size="16.00">InstructorID</text>
<polygon fill="#fcffa6" stroke="#fcffa6" points="452,-185 452,-211 586,-211 586,-185 452,-185"/>
<polygon fill="none" stroke="black" points="452,-185 452,-211 586,-211 586,-185 452,-185"/>
<text text-anchor="start" x="457.5" y="-194.267" font-family="Times New Roman,serif" font-size="16.00">LastName = &#39;Smith&#39;</text>
<polygon fill="#fcffa6" stroke="#fcffa6" points="452,-159 452,-185 586,-185 586,-159 452,-159"/>
<polygon fill="none" stroke="black" points="452,-159 452,-185 586,-185 586,-159 452,-159"/>
<text text-anchor="start" x="460" y="-168.267" font-family="Times New Roman,serif" font-size="16.00">FirstName = &#39;John&#39;</text>
</g>
<!-- qa -->
<g id="node4" class="node"><title>qa</title>
<polygon fill="black" stroke="black" points="275,-263 275,-290 397,-290 397,-263 275,-263"/>
<polygon fill="none" stroke="black" points="275,-263 275,-290 397,-290 397,-263 275,-263"/>
<text text-anchor="start" x="280.5" y="-272.767" font-family="Times New Roman,serif" font-size="16.00"> </text>
<text text-anchor="start" x="284.5" y="-272.767" font-family="Times New Roman,serif" font-size="16.00" fill="white">questionanswers</text>
<text text-anchor="start" x="387.5" y="-272.767" font-family="Times New Roman,serif" font-size="16.00"> </text>
<polygon fill="none" stroke="black" points="275,-237 275,-263 397,-263 397,-237 275,-237"/>
<text text-anchor="start" x="299.5" y="-246.267" font-family="Times New Roman,serif" font-size="16.00">QuestionID</text>
<polygon fill="none" stroke="black" points="275,-211 275,-237 397,-237 397,-211 275,-211"/>
<text text-anchor="start" x="297.5" y="-220.267" font-family="Times New Roman,serif" font-size="16.00">InstructorID</text>
</g>
<!-- q&#45;&gt;qa -->
<g id="1" class="edge"><title>q:QuestionID:e&#45;&gt;qa:QuestionID:w</title>
<path fill="none" stroke="black" d="M220,-146C272.288,-146 222.712,-250 275,-250"/>
</g>
<!-- qt -->
<g id="node5" class="node"><title>qt</title>
<polygon fill="black" stroke="black" points="287,-159 287,-186 385,-186 385,-159 287,-159"/>
<polygon fill="none" stroke="black" points="287,-159 287,-186 385,-186 385,-159 287,-159"/>
<text text-anchor="start" x="292.5" y="-168.767" font-family="Times New Roman,serif" font-size="16.00"> </text>
<text text-anchor="start" x="296.5" y="-168.767" font-family="Times New Roman,serif" font-size="16.00" fill="white">questiontags</text>
<text text-anchor="start" x="375.5" y="-168.767" font-family="Times New Roman,serif" font-size="16.00"> </text>
<polygon fill="none" stroke="black" points="287,-133 287,-159 385,-159 385,-133 287,-133"/>
<text text-anchor="start" x="299.5" y="-142.267" font-family="Times New Roman,serif" font-size="16.00">QuestionID</text>
</g>
<!-- q&#45;&gt;qt -->
<g id="3" class="edge"><title>q:QuestionID:e&#45;&gt;qt:QuestionID:w</title>
<path fill="none" stroke="black" d="M220,-146C249.778,-146 257.222,-146 287,-146"/>
</g>
<!-- s -->
<g id="node6" class="node"><title>s</title>
<polygon fill="black" stroke="black" points="273,-81 273,-108 400,-108 400,-81 273,-81"/>
<polygon fill="none" stroke="black" points="273,-81 273,-108 400,-108 400,-81 273,-81"/>
<text text-anchor="start" x="306.5" y="-90.7667" font-family="Times New Roman,serif" font-size="16.00"> </text>
<text text-anchor="start" x="310.5" y="-90.7667" font-family="Times New Roman,serif" font-size="16.00" fill="white">students</text>
<text text-anchor="start" x="362.5" y="-90.7667" font-family="Times New Roman,serif" font-size="16.00"> </text>
<polygon fill="none" stroke="black" points="273,-55 273,-81 400,-81 400,-55 273,-55"/>
<text text-anchor="start" x="304.5" y="-64.2667" font-family="Times New Roman,serif" font-size="16.00">StudentID</text>
<polygon fill="#fcffa6" stroke="#fcffa6" points="273,-29 273,-55 400,-55 400,-29 273,-29"/>
<polygon fill="none" stroke="black" points="273,-29 273,-55 400,-55 400,-29 273,-29"/>
<text text-anchor="start" x="278.5" y="-38.2667" font-family="Times New Roman,serif" font-size="16.00">FirstName = &#39;Jane&#39;</text>
<polygon fill="#fcffa6" stroke="#fcffa6" points="273,-3 273,-29 400,-29 400,-3 273,-3"/>
<polygon fill="none" stroke="black" points="273,-3 273,-29 400,-29 400,-3 273,-3"/>
<text text-anchor="start" x="280.5" y="-12.2667" font-family="Times New Roman,serif" font-size="16.00">LastName = &#39;Doe&#39;</text>
</g>
<!-- q&#45;&gt;s -->
<g id="0" class="edge"><title>q:StudentID:e&#45;&gt;s:StudentID:w</title>
<path fill="none" stroke="black" d="M220,-120C253,-120 240,-68 273,-68"/>
</g>
<!-- qa&#45;&gt;i -->
<g id="2" class="edge"><title>qa:InstructorID:e&#45;&gt;i:InstructorID:w</title>
<path fill="none" stroke="black" d="M397,-224C421.444,-224 427.556,-224 452,-224"/>
</g>
</g>
</svg>
