<?xml version="1.0" encoding="UTF-8" standalone="no"?>
<!DOCTYPE svg PUBLIC "-//W3C//DTD SVG 1.1//EN"
 "http://www.w3.org/Graphics/SVG/1.1/DTD/svg11.dtd">
<!-- Generated by graphviz version 2.27.20100609.0445 (20100609.0445)
 -->
<!-- Title: QueryViz Pages: 1 -->
<svg width="488pt" height="562pt"
 viewBox="0.00 0.00 488.00 562.00" xmlns="http://www.w3.org/2000/svg" xmlns:xlink="http://www.w3.org/1999/xlink">
<g id="graph1" class="graph" transform="scale(1 1) rotate(0) translate(4 558)">
<title>QueryViz</title>
<polygon fill="white" stroke="white" points="-4,5 -4,-558 485,-558 485,5 -4,5"/>
<!-- select -->
<g id="node1" class="node"><title>select</title>
<polygon fill="gray" stroke="gray" points="8,-367 8,-394 86,-394 86,-367 8,-367"/>
<polygon fill="none" stroke="black" points="8,-367 8,-394 86,-394 86,-367 8,-367"/>
<text text-anchor="start" x="14.5" y="-376.767" font-family="Times New Roman,serif" font-size="16.00"> </text>
<text text-anchor="start" x="18.5" y="-376.767" font-family="Times New Roman,serif" font-size="16.00" fill="white">SELECT</text>
<text text-anchor="start" x="75.5" y="-376.767" font-family="Times New Roman,serif" font-size="16.00"> </text>
<polygon fill="none" stroke="black" points="8,-341 8,-367 86,-367 86,-341 8,-341"/>
<text text-anchor="start" x="13.5" y="-350.267" font-family="Times New Roman,serif" font-size="16.00">FirstName</text>
<polygon fill="none" stroke="black" points="8,-315 8,-341 86,-341 86,-315 8,-315"/>
<text text-anchor="start" x="15" y="-324.267" font-family="Times New Roman,serif" font-size="16.00">LastName</text>
<polygon fill="none" stroke="black" points="8,-289 8,-315 86,-315 86,-289 8,-289"/>
<text text-anchor="start" x="13.5" y="-298.267" font-family="Times New Roman,serif" font-size="16.00">FirstName</text>
<polygon fill="none" stroke="black" points="8,-263 8,-289 86,-289 86,-263 8,-263"/>
<text text-anchor="start" x="15" y="-272.267" font-family="Times New Roman,serif" font-size="16.00">LastName</text>
<polygon fill="none" stroke="black" points="8,-237 8,-263 86,-263 86,-237 8,-237"/>
<text text-anchor="start" x="33" y="-246.267" font-family="Times New Roman,serif" font-size="16.00">Text</text>
<polygon fill="none" stroke="black" points="8,-211 8,-237 86,-237 86,-211 8,-211"/>
<text text-anchor="start" x="32" y="-220.267" font-family="Times New Roman,serif" font-size="16.00">Date</text>
<polygon fill="none" stroke="black" points="8,-185 8,-211 86,-211 86,-185 8,-185"/>
<text text-anchor="start" x="33" y="-194.267" font-family="Times New Roman,serif" font-size="16.00">Text</text>
<polygon fill="none" stroke="black" points="8,-159 8,-185 86,-185 86,-159 8,-159"/>
<text text-anchor="start" x="32" y="-168.267" font-family="Times New Roman,serif" font-size="16.00">Date</text>
</g>
<!-- s -->
<g id="node2" class="node"><title>s</title>
<polygon fill="black" stroke="black" points="160,-523 160,-550 238,-550 238,-523 160,-523"/>
<polygon fill="none" stroke="black" points="160,-523 160,-550 238,-550 238,-523 160,-523"/>
<text text-anchor="start" x="169" y="-532.767" font-family="Times New Roman,serif" font-size="16.00"> </text>
<text text-anchor="start" x="173" y="-532.767" font-family="Times New Roman,serif" font-size="16.00" fill="white">students</text>
<text text-anchor="start" x="225" y="-532.767" font-family="Times New Roman,serif" font-size="16.00"> </text>
<polygon fill="none" stroke="black" points="160,-497 160,-523 238,-523 238,-497 160,-497"/>
<text text-anchor="start" x="167" y="-506.267" font-family="Times New Roman,serif" font-size="16.00">StudentID</text>
<polygon fill="none" stroke="black" points="160,-471 160,-497 238,-497 238,-471 160,-471"/>
<text text-anchor="start" x="165.5" y="-480.267" font-family="Times New Roman,serif" font-size="16.00">FirstName</text>
<polygon fill="none" stroke="black" points="160,-445 160,-471 238,-471 238,-445 160,-445"/>
<text text-anchor="start" x="167" y="-454.267" font-family="Times New Roman,serif" font-size="16.00">LastName</text>
</g>
<!-- select&#45;&gt;s -->
<g id="6" class="edge"><title>select:f6:e&#45;&gt;s:FirstName:w</title>
<path fill="none" stroke="black" d="M86,-354C152.483,-354 93.5173,-484 160,-484"/>
</g>
<!-- select&#45;&gt;s -->
<g id="7" class="edge"><title>select:f7:e&#45;&gt;s:LastName:w</title>
<path fill="none" stroke="black" d="M86,-328C152.483,-328 93.5173,-458 160,-458"/>
</g>
<!-- i -->
<g id="node3" class="node"><title>i</title>
<polygon fill="black" stroke="black" points="155,-393 155,-420 243,-420 243,-393 155,-393"/>
<polygon fill="none" stroke="black" points="155,-393 155,-420 243,-420 243,-393 155,-393"/>
<text text-anchor="start" x="161.5" y="-402.767" font-family="Times New Roman,serif" font-size="16.00"> </text>
<text text-anchor="start" x="165.5" y="-402.767" font-family="Times New Roman,serif" font-size="16.00" fill="white">instructors</text>
<text text-anchor="start" x="232.5" y="-402.767" font-family="Times New Roman,serif" font-size="16.00"> </text>
<polygon fill="none" stroke="black" points="155,-367 155,-393 243,-393 243,-367 155,-367"/>
<text text-anchor="start" x="160.5" y="-376.267" font-family="Times New Roman,serif" font-size="16.00">InstructorID</text>
<polygon fill="none" stroke="black" points="155,-341 155,-367 243,-367 243,-341 155,-341"/>
<text text-anchor="start" x="165.5" y="-350.267" font-family="Times New Roman,serif" font-size="16.00">FirstName</text>
<polygon fill="none" stroke="black" points="155,-315 155,-341 243,-341 243,-315 155,-315"/>
<text text-anchor="start" x="167" y="-324.267" font-family="Times New Roman,serif" font-size="16.00">LastName</text>
</g>
<!-- select&#45;&gt;i -->
<g id="0" class="edge"><title>select:f0:e&#45;&gt;i:FirstName:w</title>
<path fill="none" stroke="black" d="M86,-302C124.4,-302 116.6,-354 155,-354"/>
</g>
<!-- select&#45;&gt;i -->
<g id="1" class="edge"><title>select:f1:e&#45;&gt;i:LastName:w</title>
<path fill="none" stroke="black" d="M86,-276C124.4,-276 116.6,-328 155,-328"/>
</g>
<!-- q -->
<g id="node4" class="node"><title>q</title>
<polygon fill="black" stroke="black" points="157,-263 157,-290 241,-290 241,-263 157,-263"/>
<polygon fill="none" stroke="black" points="157,-263 157,-290 241,-290 241,-263 157,-263"/>
<text text-anchor="start" x="165" y="-272.767" font-family="Times New Roman,serif" font-size="16.00"> </text>
<text text-anchor="start" x="169" y="-272.767" font-family="Times New Roman,serif" font-size="16.00" fill="white">questions</text>
<text text-anchor="start" x="229" y="-272.767" font-family="Times New Roman,serif" font-size="16.00"> </text>
<polygon fill="none" stroke="black" points="157,-237 157,-263 241,-263 241,-237 157,-237"/>
<text text-anchor="start" x="167" y="-246.267" font-family="Times New Roman,serif" font-size="16.00">StudentID</text>
<polygon fill="none" stroke="black" points="157,-211 157,-237 241,-237 241,-211 157,-211"/>
<text text-anchor="start" x="162.5" y="-220.267" font-family="Times New Roman,serif" font-size="16.00">QuestionID</text>
<polygon fill="none" stroke="black" points="157,-185 157,-211 241,-211 241,-185 157,-185"/>
<text text-anchor="start" x="185" y="-194.267" font-family="Times New Roman,serif" font-size="16.00">Text</text>
<polygon fill="none" stroke="black" points="157,-159 157,-185 241,-185 241,-159 157,-159"/>
<text text-anchor="start" x="184" y="-168.267" font-family="Times New Roman,serif" font-size="16.00">Date</text>
</g>
<!-- select&#45;&gt;q -->
<g id="2" class="edge"><title>select:f2:e&#45;&gt;q:Text:w</title>
<path fill="none" stroke="black" d="M86,-250C125.114,-250 117.886,-198 157,-198"/>
</g>
<!-- select&#45;&gt;q -->
<g id="3" class="edge"><title>select:f3:e&#45;&gt;q:Date:w</title>
<path fill="none" stroke="black" d="M86,-224C125.114,-224 117.886,-172 157,-172"/>
</g>
<!-- qa -->
<g id="node5" class="node"><title>qa</title>
<polygon fill="black" stroke="black" points="138,-107 138,-134 260,-134 260,-107 138,-107"/>
<polygon fill="none" stroke="black" points="138,-107 138,-134 260,-134 260,-107 138,-107"/>
<text text-anchor="start" x="143.5" y="-116.767" font-family="Times New Roman,serif" font-size="16.00"> </text>
<text text-anchor="start" x="147.5" y="-116.767" font-family="Times New Roman,serif" font-size="16.00" fill="white">questionanswers</text>
<text text-anchor="start" x="250.5" y="-116.767" font-family="Times New Roman,serif" font-size="16.00"> </text>
<polygon fill="none" stroke="black" points="138,-81 138,-107 260,-107 260,-81 138,-81"/>
<text text-anchor="start" x="162.5" y="-90.2667" font-family="Times New Roman,serif" font-size="16.00">QuestionID</text>
<polygon fill="none" stroke="black" points="138,-55 138,-81 260,-81 260,-55 138,-55"/>
<text text-anchor="start" x="160.5" y="-64.2667" font-family="Times New Roman,serif" font-size="16.00">InstructorID</text>
<polygon fill="none" stroke="black" points="138,-29 138,-55 260,-55 260,-29 138,-29"/>
<text text-anchor="start" x="185" y="-38.2667" font-family="Times New Roman,serif" font-size="16.00">Text</text>
<polygon fill="none" stroke="black" points="138,-3 138,-29 260,-29 260,-3 138,-3"/>
<text text-anchor="start" x="184" y="-12.2667" font-family="Times New Roman,serif" font-size="16.00">Date</text>
</g>
<!-- select&#45;&gt;qa -->
<g id="4" class="edge"><title>select:f4:e&#45;&gt;qa:Text:w</title>
<path fill="none" stroke="black" d="M86,-198C159.084,-198 64.9162,-42 138,-42"/>
</g>
<!-- select&#45;&gt;qa -->
<g id="5" class="edge"><title>select:f5:e&#45;&gt;qa:Date:w</title>
<path fill="none" stroke="black" d="M86,-172C159.084,-172 64.9162,-16 138,-16"/>
</g>
<!-- s&#45;&gt;q -->
<g id="0" class="edge"><title>s:StudentID:e&#45;&gt;q:StudentID:e</title>
<path fill="none" stroke="black" d="M238,-510C281.773,-510 274.978,-466.362 286,-424 298.534,-375.826 301.371,-359.345 286,-312 275.486,-279.615 275.049,-250 241,-250"/>
</g>
<!-- q&#45;&gt;qa -->
<g id="1" class="edge"><title>q:QuestionID:e&#45;&gt;qa:QuestionID:e</title>
<path fill="none" stroke="black" d="M260,-94C289.196,-94 270.196,-224 241,-224"/>
</g>
<!-- qt -->
<g id="node6" class="node"><title>qt</title>
<polygon fill="black" stroke="black" points="312,-237 312,-264 472,-264 472,-237 312,-237"/>
<polygon fill="none" stroke="black" points="312,-237 312,-264 472,-264 472,-237 312,-237"/>
<text text-anchor="start" x="348.5" y="-246.767" font-family="Times New Roman,serif" font-size="16.00"> </text>
<text text-anchor="start" x="352.5" y="-246.767" font-family="Times New Roman,serif" font-size="16.00" fill="white">questiontags</text>
<text text-anchor="start" x="431.5" y="-246.767" font-family="Times New Roman,serif" font-size="16.00"> </text>
<polygon fill="none" stroke="black" points="312,-211 312,-237 472,-237 472,-211 312,-211"/>
<text text-anchor="start" x="355.5" y="-220.267" font-family="Times New Roman,serif" font-size="16.00">QuestionID</text>
<polygon fill="#fcffa6" stroke="#fcffa6" points="312,-185 312,-211 472,-211 472,-185 312,-185"/>
<polygon fill="none" stroke="black" points="312,-185 312,-211 472,-211 472,-185 312,-185"/>
<text text-anchor="start" x="317.5" y="-194.267" font-family="Times New Roman,serif" font-size="16.00">Tag = &#39;natural language&#39;</text>
</g>
<!-- q&#45;&gt;qt -->
<g id="3" class="edge"><title>q:QuestionID:e&#45;&gt;qt:QuestionID:w</title>
<path fill="none" stroke="black" d="M241,-224C272.556,-224 280.444,-224 312,-224"/>
</g>
<!-- qa&#45;&gt;i -->
<g id="2" class="edge"><title>qa:InstructorID:e&#45;&gt;i:InstructorID:e</title>
<path fill="none" stroke="black" d="M260,-68C300.782,-68 280.162,-115.638 286,-156 294.78,-216.702 300.092,-234.307 286,-294 276.182,-335.591 285.734,-380 243,-380"/>
</g>
</g>
</svg>
