<?xml version="1.0" encoding="UTF-8" standalone="no"?>
<!DOCTYPE svg PUBLIC "-//W3C//DTD SVG 1.1//EN"
 "http://www.w3.org/Graphics/SVG/1.1/DTD/svg11.dtd">
<!-- Generated by graphviz version 2.27.20100609.0445 (20100609.0445)
 -->
<!-- Title: QueryViz Pages: 1 -->
<svg width="576pt" height="120pt"
 viewBox="0.00 0.00 576.00 120.00" xmlns="http://www.w3.org/2000/svg" xmlns:xlink="http://www.w3.org/1999/xlink">
<g id="graph1" class="graph" transform="scale(1 1) rotate(0) translate(4 116)">
<title>QueryViz</title>
<polygon fill="white" stroke="white" points="-4,5 -4,-116 573,-116 573,5 -4,5"/>
<!-- select -->
<g id="node1" class="node"><title>select</title>
<polygon fill="gray" stroke="gray" points="8,-55 8,-82 84,-82 84,-55 8,-55"/>
<polygon fill="none" stroke="black" points="8,-55 8,-82 84,-82 84,-55 8,-55"/>
<text text-anchor="start" x="13.5" y="-64.7667" font-family="Times New Roman,serif" font-size="16.00"> </text>
<text text-anchor="start" x="17.5" y="-64.7667" font-family="Times New Roman,serif" font-size="16.00" fill="white">SELECT</text>
<text text-anchor="start" x="74.5" y="-64.7667" font-family="Times New Roman,serif" font-size="16.00"> </text>
<polygon fill="none" stroke="black" points="8,-29 8,-55 84,-55 84,-29 8,-29"/>
<text text-anchor="start" x="29" y="-38.2667" font-family="Times New Roman,serif" font-size="16.00">name</text>
</g>
<!-- w -->
<g id="node3" class="node"><title>w</title>
<polygon fill="black" stroke="black" points="137,-81 137,-108 216,-108 216,-81 137,-81"/>
<polygon fill="none" stroke="black" points="137,-81 137,-108 216,-108 216,-81 137,-81"/>
<text text-anchor="start" x="142.5" y="-90.7667" font-family="Times New Roman,serif" font-size="16.00"> </text>
<text text-anchor="start" x="146.5" y="-90.7667" font-family="Times New Roman,serif" font-size="16.00" fill="white">workload</text>
<text text-anchor="start" x="206.5" y="-90.7667" font-family="Times New Roman,serif" font-size="16.00"> </text>
<polygon fill="none" stroke="black" points="137,-55 137,-81 216,-81 216,-55 137,-55"/>
<text text-anchor="start" x="170" y="-64.2667" font-family="Times New Roman,serif" font-size="16.00">id</text>
<polygon fill="none" stroke="black" points="137,-29 137,-55 216,-55 216,-29 137,-29"/>
<text text-anchor="start" x="159.5" y="-38.2667" font-family="Times New Roman,serif" font-size="16.00">name</text>
</g>
<!-- select&#45;&gt;w -->
<g id="0" class="edge"><title>select:f0:e&#45;&gt;w:name:w</title>
<path fill="none" stroke="black" d="M84,-42C107.556,-42 113.444,-42 137,-42"/>
</g>
<!-- i -->
<g id="node2" class="node"><title>i</title>
<polygon fill="black" stroke="black" points="455,-55 455,-82 560,-82 560,-55 455,-55"/>
<polygon fill="none" stroke="black" points="455,-55 455,-82 560,-82 560,-55 455,-55"/>
<text text-anchor="start" x="470" y="-64.7667" font-family="Times New Roman,serif" font-size="16.00"> </text>
<text text-anchor="start" x="474" y="-64.7667" font-family="Times New Roman,serif" font-size="16.00" fill="white">instructors</text>
<text text-anchor="start" x="541" y="-64.7667" font-family="Times New Roman,serif" font-size="16.00"> </text>
<polygon fill="none" stroke="black" points="455,-29 455,-55 560,-55 560,-29 455,-29"/>
<text text-anchor="start" x="469" y="-38.2667" font-family="Times New Roman,serif" font-size="16.00">InstructorID</text>
<polygon fill="#fcffa6" stroke="#fcffa6" points="455,-3 455,-29 560,-29 560,-3 455,-3"/>
<polygon fill="none" stroke="black" points="455,-3 455,-29 560,-29 560,-3 455,-3"/>
<text text-anchor="start" x="460.5" y="-12.2667" font-family="Times New Roman,serif" font-size="16.00">Reputation &gt; 7</text>
</g>
<!-- wc -->
<g id="node4" class="node"><title>wc</title>
<polygon fill="black" stroke="black" points="268,-81 268,-108 402,-108 402,-81 268,-81"/>
<polygon fill="none" stroke="black" points="268,-81 268,-108 402,-108 402,-81 268,-81"/>
<text text-anchor="start" x="273.5" y="-90.7667" font-family="Times New Roman,serif" font-size="16.00"> </text>
<text text-anchor="start" x="277.5" y="-90.7667" font-family="Times New Roman,serif" font-size="16.00" fill="white">workload_courses</text>
<text text-anchor="start" x="392.5" y="-90.7667" font-family="Times New Roman,serif" font-size="16.00"> </text>
<polygon fill="none" stroke="black" points="268,-55 268,-81 402,-81 402,-55 268,-55"/>
<text text-anchor="start" x="295" y="-64.2667" font-family="Times New Roman,serif" font-size="16.00">workload_id</text>
<polygon fill="none" stroke="black" points="268,-29 268,-55 402,-55 402,-29 268,-29"/>
<text text-anchor="start" x="294" y="-38.2667" font-family="Times New Roman,serif" font-size="16.00">instructor_id</text>
</g>
<!-- w&#45;&gt;wc -->
<g id="0" class="edge"><title>w:id:e&#45;&gt;wc:workload_id:w</title>
<path fill="none" stroke="black" d="M216,-68C239.111,-68 244.889,-68 268,-68"/>
</g>
<!-- wc&#45;&gt;i -->
<g id="1" class="edge"><title>wc:instructor_id:e&#45;&gt;i:InstructorID:w</title>
<path fill="none" stroke="black" d="M402,-42C425.556,-42 431.444,-42 455,-42"/>
</g>
</g>
</svg>
