<?xml version="1.0" encoding="UTF-8" standalone="no"?>
<!DOCTYPE svg PUBLIC "-//W3C//DTD SVG 1.1//EN"
 "http://www.w3.org/Graphics/SVG/1.1/DTD/svg11.dtd">
<!-- Generated by graphviz version 2.27.20100609.0445 (20100609.0445)
 -->
<!-- Title: QueryViz Pages: 1 -->
<svg width="592pt" height="120pt"
 viewBox="0.00 0.00 592.00 120.00" xmlns="http://www.w3.org/2000/svg" xmlns:xlink="http://www.w3.org/1999/xlink">
<g id="graph1" class="graph" transform="scale(1 1) rotate(0) translate(4 116)">
<title>QueryViz</title>
<polygon fill="white" stroke="white" points="-4,5 -4,-116 589,-116 589,5 -4,5"/>
<!-- select -->
<g id="node1" class="node"><title>select</title>
<polygon fill="gray" stroke="gray" points="8,-55 8,-82 84,-82 84,-55 8,-55"/>
<polygon fill="none" stroke="black" points="8,-55 8,-82 84,-82 84,-55 8,-55"/>
<text text-anchor="start" x="13.5" y="-64.7667" font-family="Times New Roman,serif" font-size="16.00"> </text>
<text text-anchor="start" x="17.5" y="-64.7667" font-family="Times New Roman,serif" font-size="16.00" fill="white">SELECT</text>
<text text-anchor="start" x="74.5" y="-64.7667" font-family="Times New Roman,serif" font-size="16.00"> </text>
<polygon fill="none" stroke="black" points="8,-29 8,-55 84,-55 84,-29 8,-29"/>
<text text-anchor="start" x="14" y="-38.2667" font-family="Times New Roman,serif" font-size="16.00">LastName</text>
</g>
<!-- s -->
<g id="node2" class="node"><title>s</title>
<polygon fill="black" stroke="black" points="137,-81 137,-108 212,-108 212,-81 137,-81"/>
<polygon fill="none" stroke="black" points="137,-81 137,-108 212,-108 212,-81 137,-81"/>
<text text-anchor="start" x="144.5" y="-90.7667" font-family="Times New Roman,serif" font-size="16.00"> </text>
<text text-anchor="start" x="148.5" y="-90.7667" font-family="Times New Roman,serif" font-size="16.00" fill="white">students</text>
<text text-anchor="start" x="200.5" y="-90.7667" font-family="Times New Roman,serif" font-size="16.00"> </text>
<polygon fill="none" stroke="black" points="137,-55 137,-81 212,-81 212,-55 137,-55"/>
<text text-anchor="start" x="142.5" y="-64.2667" font-family="Times New Roman,serif" font-size="16.00">StudentID</text>
<polygon fill="none" stroke="black" points="137,-29 137,-55 212,-55 212,-29 137,-29"/>
<text text-anchor="start" x="142.5" y="-38.2667" font-family="Times New Roman,serif" font-size="16.00">LastName</text>
</g>
<!-- select&#45;&gt;s -->
<g id="0" class="edge"><title>select:f0:e&#45;&gt;s:LastName:w</title>
<path fill="none" stroke="black" d="M84,-42C107.556,-42 113.444,-42 137,-42"/>
</g>
<!-- ss -->
<g id="node4" class="node"><title>ss</title>
<polygon fill="black" stroke="black" points="265,-81 265,-108 382,-108 382,-81 265,-81"/>
<polygon fill="none" stroke="black" points="265,-81 265,-108 382,-108 382,-81 265,-81"/>
<text text-anchor="start" x="275" y="-90.7667" font-family="Times New Roman,serif" font-size="16.00"> </text>
<text text-anchor="start" x="279" y="-90.7667" font-family="Times New Roman,serif" font-size="16.00" fill="white">studentstudies</text>
<text text-anchor="start" x="368" y="-90.7667" font-family="Times New Roman,serif" font-size="16.00"> </text>
<polygon fill="none" stroke="black" points="265,-55 265,-81 382,-81 382,-55 265,-55"/>
<text text-anchor="start" x="291.5" y="-64.2667" font-family="Times New Roman,serif" font-size="16.00">StudentID</text>
<polygon fill="none" stroke="black" points="265,-29 265,-55 382,-55 382,-29 265,-29"/>
<text text-anchor="start" x="270.5" y="-38.2667" font-family="Times New Roman,serif" font-size="16.00">StudyProgramID</text>
</g>
<!-- s&#45;&gt;ss -->
<g id="0" class="edge"><title>s:StudentID:e&#45;&gt;ss:StudentID:w</title>
<path fill="none" stroke="black" d="M212,-68C235.556,-68 241.444,-68 265,-68"/>
</g>
<!-- sp -->
<g id="node3" class="node"><title>sp</title>
<polygon fill="black" stroke="black" points="434,-55 434,-82 576,-82 576,-55 434,-55"/>
<polygon fill="none" stroke="black" points="434,-55 434,-82 576,-82 576,-55 434,-55"/>
<text text-anchor="start" x="455" y="-64.7667" font-family="Times New Roman,serif" font-size="16.00"> </text>
<text text-anchor="start" x="459" y="-64.7667" font-family="Times New Roman,serif" font-size="16.00" fill="white">studyprograms</text>
<text text-anchor="start" x="551" y="-64.7667" font-family="Times New Roman,serif" font-size="16.00"> </text>
<polygon fill="none" stroke="black" points="434,-29 434,-55 576,-55 576,-29 434,-29"/>
<text text-anchor="start" x="452" y="-38.2667" font-family="Times New Roman,serif" font-size="16.00">StudyProgramID</text>
<polygon fill="#fcffa6" stroke="#fcffa6" points="434,-3 434,-29 576,-29 576,-3 434,-3"/>
<polygon fill="none" stroke="black" points="434,-3 434,-29 576,-29 576,-3 434,-3"/>
<text text-anchor="start" x="439.5" y="-12.2667" font-family="Times New Roman,serif" font-size="16.00">Name = &#39;Informatics&#39;</text>
</g>
<!-- ss&#45;&gt;sp -->
<g id="1" class="edge"><title>ss:StudyProgramID:e&#45;&gt;sp:StudyProgramID:w</title>
<path fill="none" stroke="black" d="M382,-42C405.111,-42 410.889,-42 434,-42"/>
</g>
</g>
</svg>
