<?xml version="1.0" encoding="UTF-8" standalone="no"?>
<!DOCTYPE svg PUBLIC "-//W3C//DTD SVG 1.1//EN"
 "http://www.w3.org/Graphics/SVG/1.1/DTD/svg11.dtd">
<!-- Generated by graphviz version 2.27.20100609.0445 (20100609.0445)
 -->
<!-- Title: QueryViz Pages: 1 -->
<svg width="642pt" height="146pt"
 viewBox="0.00 0.00 642.00 146.00" xmlns="http://www.w3.org/2000/svg" xmlns:xlink="http://www.w3.org/1999/xlink">
<g id="graph1" class="graph" transform="scale(1 1) rotate(0) translate(4 142)">
<title>QueryViz</title>
<polygon fill="white" stroke="white" points="-4,5 -4,-142 639,-142 639,5 -4,5"/>
<!-- select -->
<g id="node1" class="node"><title>select</title>
<polygon fill="gray" stroke="gray" points="8,-55 8,-82 84,-82 84,-55 8,-55"/>
<polygon fill="none" stroke="black" points="8,-55 8,-82 84,-82 84,-55 8,-55"/>
<text text-anchor="start" x="13.5" y="-64.7667" font-family="Times New Roman,serif" font-size="16.00"> </text>
<text text-anchor="start" x="17.5" y="-64.7667" font-family="Times New Roman,serif" font-size="16.00" fill="white">SELECT</text>
<text text-anchor="start" x="74.5" y="-64.7667" font-family="Times New Roman,serif" font-size="16.00"> </text>
<polygon fill="none" stroke="black" points="8,-29 8,-55 84,-55 84,-29 8,-29"/>
<text text-anchor="start" x="35" y="-38.2667" font-family="Times New Roman,serif" font-size="16.00">day</text>
</g>
<!-- ss -->
<g id="node4" class="node"><title>ss</title>
<polygon fill="black" stroke="black" points="136,-81 136,-108 268,-108 268,-81 136,-81"/>
<polygon fill="none" stroke="black" points="136,-81 136,-108 268,-108 268,-81 136,-81"/>
<text text-anchor="start" x="141.5" y="-90.7667" font-family="Times New Roman,serif" font-size="16.00"> </text>
<text text-anchor="start" x="145.5" y="-90.7667" font-family="Times New Roman,serif" font-size="16.00" fill="white">section_schedules</text>
<text text-anchor="start" x="258.5" y="-90.7667" font-family="Times New Roman,serif" font-size="16.00"> </text>
<polygon fill="none" stroke="black" points="136,-55 136,-81 268,-81 268,-55 136,-55"/>
<text text-anchor="start" x="169.5" y="-64.2667" font-family="Times New Roman,serif" font-size="16.00">section_id</text>
<polygon fill="none" stroke="black" points="136,-29 136,-55 268,-55 268,-29 136,-29"/>
<text text-anchor="start" x="191" y="-38.2667" font-family="Times New Roman,serif" font-size="16.00">day</text>
<polygon fill="#fcffa6" stroke="#fcffa6" points="136,-3 136,-29 268,-29 268,-3 136,-3"/>
<polygon fill="none" stroke="black" points="136,-3 136,-29 268,-29 268,-3 136,-3"/>
<text text-anchor="start" x="153" y="-12.2667" font-family="Times New Roman,serif" font-size="16.00">start_hour &gt; 12</text>
</g>
<!-- select&#45;&gt;ss -->
<g id="0" class="edge"><title>select:f0:e&#45;&gt;ss:day:w</title>
<path fill="none" stroke="black" d="M84,-42C107.111,-42 112.889,-42 136,-42"/>
</g>
<!-- i -->
<g id="node2" class="node"><title>i</title>
<polygon fill="black" stroke="black" points="496,-107 496,-134 626,-134 626,-107 496,-107"/>
<polygon fill="none" stroke="black" points="496,-107 496,-134 626,-134 626,-107 496,-107"/>
<text text-anchor="start" x="523.5" y="-116.767" font-family="Times New Roman,serif" font-size="16.00"> </text>
<text text-anchor="start" x="527.5" y="-116.767" font-family="Times New Roman,serif" font-size="16.00" fill="white">instructors</text>
<text text-anchor="start" x="594.5" y="-116.767" font-family="Times New Roman,serif" font-size="16.00"> </text>
<polygon fill="none" stroke="black" points="496,-81 496,-107 626,-107 626,-81 496,-81"/>
<text text-anchor="start" x="522.5" y="-90.2667" font-family="Times New Roman,serif" font-size="16.00">InstructorID</text>
<polygon fill="#fcffa6" stroke="#fcffa6" points="496,-55 496,-81 626,-81 626,-55 496,-55"/>
<polygon fill="none" stroke="black" points="496,-55 496,-81 626,-81 626,-55 496,-55"/>
<text text-anchor="start" x="501.5" y="-64.2667" font-family="Times New Roman,serif" font-size="16.00">Name = &#39;John Doe&#39;</text>
</g>
<!-- ih -->
<g id="node3" class="node"><title>ih</title>
<polygon fill="black" stroke="black" points="321,-107 321,-134 444,-134 444,-107 321,-107"/>
<polygon fill="none" stroke="black" points="321,-107 321,-134 444,-134 444,-107 321,-107"/>
<text text-anchor="start" x="326.5" y="-116.767" font-family="Times New Roman,serif" font-size="16.00"> </text>
<text text-anchor="start" x="330.5" y="-116.767" font-family="Times New Roman,serif" font-size="16.00" fill="white">instructorhistory</text>
<text text-anchor="start" x="434.5" y="-116.767" font-family="Times New Roman,serif" font-size="16.00"> </text>
<polygon fill="none" stroke="black" points="321,-81 321,-107 444,-107 444,-81 321,-81"/>
<text text-anchor="start" x="344" y="-90.2667" font-family="Times New Roman,serif" font-size="16.00">InstructorID</text>
<polygon fill="none" stroke="black" points="321,-55 321,-81 444,-81 444,-55 321,-55"/>
<text text-anchor="start" x="328.5" y="-64.2667" font-family="Times New Roman,serif" font-size="16.00">CourseSectionID</text>
</g>
<!-- ih&#45;&gt;i -->
<g id="0" class="edge"><title>ih:InstructorID:e&#45;&gt;i:InstructorID:w</title>
<path fill="none" stroke="black" d="M444,-94C467.111,-94 472.889,-94 496,-94"/>
</g>
<!-- ss&#45;&gt;ih -->
<g id="1" class="edge"><title>ss:section_id:e&#45;&gt;ih:CourseSectionID:w</title>
<path fill="none" stroke="black" d="M268,-68C291.556,-68 297.444,-68 321,-68"/>
</g>
</g>
</svg>
