<?xml version="1.0" encoding="UTF-8" standalone="no"?>
<!DOCTYPE svg PUBLIC "-//W3C//DTD SVG 1.1//EN"
 "http://www.w3.org/Graphics/SVG/1.1/DTD/svg11.dtd">
<!-- Generated by graphviz version 2.27.20100609.0445 (20100609.0445)
 -->
<!-- Title: QueryViz Pages: 1 -->
<svg width="572pt" height="198pt"
 viewBox="0.00 0.00 572.00 198.00" xmlns="http://www.w3.org/2000/svg" xmlns:xlink="http://www.w3.org/1999/xlink">
<g id="graph1" class="graph" transform="scale(1 1) rotate(0) translate(4 194)">
<title>QueryViz</title>
<polygon fill="white" stroke="white" points="-4,5 -4,-194 569,-194 569,5 -4,5"/>
<!-- select -->
<g id="node1" class="node"><title>select</title>
<polygon fill="gray" stroke="gray" points="8,-78 8,-105 84,-105 84,-78 8,-78"/>
<polygon fill="none" stroke="black" points="8,-78 8,-105 84,-105 84,-78 8,-78"/>
<text text-anchor="start" x="13.5" y="-87.7667" font-family="Times New Roman,serif" font-size="16.00"> </text>
<text text-anchor="start" x="17.5" y="-87.7667" font-family="Times New Roman,serif" font-size="16.00" fill="white">SELECT</text>
<text text-anchor="start" x="74.5" y="-87.7667" font-family="Times New Roman,serif" font-size="16.00"> </text>
<polygon fill="none" stroke="black" points="8,-52 8,-78 84,-78 84,-52 8,-52"/>
<text text-anchor="start" x="32" y="-61.2667" font-family="Times New Roman,serif" font-size="16.00">Text</text>
</g>
<!-- q -->
<g id="node3" class="node"><title>q</title>
<polygon fill="black" stroke="black" points="138,-130 138,-157 222,-157 222,-130 138,-130"/>
<polygon fill="none" stroke="black" points="138,-130 138,-157 222,-157 222,-130 138,-130"/>
<text text-anchor="start" x="146" y="-139.767" font-family="Times New Roman,serif" font-size="16.00"> </text>
<text text-anchor="start" x="150" y="-139.767" font-family="Times New Roman,serif" font-size="16.00" fill="white">questions</text>
<text text-anchor="start" x="210" y="-139.767" font-family="Times New Roman,serif" font-size="16.00"> </text>
<polygon fill="none" stroke="black" points="138,-104 138,-130 222,-130 222,-104 138,-104"/>
<text text-anchor="start" x="143.5" y="-113.267" font-family="Times New Roman,serif" font-size="16.00">QuestionID</text>
<polygon fill="none" stroke="black" points="138,-78 138,-104 222,-104 222,-78 138,-78"/>
<text text-anchor="start" x="148" y="-87.2667" font-family="Times New Roman,serif" font-size="16.00">StudentID</text>
<polygon fill="none" stroke="black" points="138,-52 138,-78 222,-78 222,-52 138,-52"/>
<text text-anchor="start" x="166" y="-61.2667" font-family="Times New Roman,serif" font-size="16.00">Text</text>
</g>
<!-- select&#45;&gt;q -->
<g id="0" class="edge"><title>select:f0:e&#45;&gt;q:Text:w</title>
<path fill="none" stroke="black" d="M84,-65C108,-65 114,-65 138,-65"/>
</g>
<!-- i -->
<g id="node2" class="node"><title>i</title>
<polygon fill="black" stroke="black" points="468,-85 468,-112 556,-112 556,-85 468,-85"/>
<polygon fill="none" stroke="black" points="468,-85 468,-112 556,-112 556,-85 468,-85"/>
<text text-anchor="start" x="474.5" y="-94.7667" font-family="Times New Roman,serif" font-size="16.00"> </text>
<text text-anchor="start" x="478.5" y="-94.7667" font-family="Times New Roman,serif" font-size="16.00" fill="white">instructors</text>
<text text-anchor="start" x="545.5" y="-94.7667" font-family="Times New Roman,serif" font-size="16.00"> </text>
<polygon fill="none" stroke="black" points="468,-59 468,-85 556,-85 556,-59 468,-59"/>
<text text-anchor="start" x="473.5" y="-68.2667" font-family="Times New Roman,serif" font-size="16.00">InstructorID</text>
<polygon fill="none" stroke="black" points="468,-33 468,-59 556,-59 556,-33 468,-33"/>
<text text-anchor="start" x="475.5" y="-42.2667" font-family="Times New Roman,serif" font-size="16.00">Affiliations</text>
</g>
<!-- qa -->
<g id="node4" class="node"><title>qa</title>
<polygon fill="black" stroke="black" points="276,-159 276,-186 398,-186 398,-159 276,-159"/>
<polygon fill="none" stroke="black" points="276,-159 276,-186 398,-186 398,-159 276,-159"/>
<text text-anchor="start" x="281.5" y="-168.767" font-family="Times New Roman,serif" font-size="16.00"> </text>
<text text-anchor="start" x="285.5" y="-168.767" font-family="Times New Roman,serif" font-size="16.00" fill="white">questionanswers</text>
<text text-anchor="start" x="388.5" y="-168.767" font-family="Times New Roman,serif" font-size="16.00"> </text>
<polygon fill="none" stroke="black" points="276,-133 276,-159 398,-159 398,-133 276,-133"/>
<text text-anchor="start" x="300.5" y="-142.267" font-family="Times New Roman,serif" font-size="16.00">QuestionID</text>
<polygon fill="none" stroke="black" points="276,-107 276,-133 398,-133 398,-107 276,-107"/>
<text text-anchor="start" x="298.5" y="-116.267" font-family="Times New Roman,serif" font-size="16.00">InstructorID</text>
</g>
<!-- q&#45;&gt;qa -->
<g id="1" class="edge"><title>q:QuestionID:e&#45;&gt;qa:QuestionID:w</title>
<path fill="none" stroke="black" d="M222,-117C249.242,-117 248.758,-146 276,-146"/>
</g>
<!-- s -->
<g id="node5" class="node"><title>s</title>
<polygon fill="black" stroke="black" points="295,-55 295,-82 379,-82 379,-55 295,-55"/>
<polygon fill="none" stroke="black" points="295,-55 295,-82 379,-82 379,-55 295,-55"/>
<text text-anchor="start" x="307" y="-64.7667" font-family="Times New Roman,serif" font-size="16.00"> </text>
<text text-anchor="start" x="311" y="-64.7667" font-family="Times New Roman,serif" font-size="16.00" fill="white">students</text>
<text text-anchor="start" x="363" y="-64.7667" font-family="Times New Roman,serif" font-size="16.00"> </text>
<polygon fill="none" stroke="black" points="295,-29 295,-55 379,-55 379,-29 295,-29"/>
<text text-anchor="start" x="305" y="-38.2667" font-family="Times New Roman,serif" font-size="16.00">StudentID</text>
<polygon fill="none" stroke="black" points="295,-3 295,-29 379,-29 379,-3 295,-3"/>
<text text-anchor="start" x="300.5" y="-12.2667" font-family="Times New Roman,serif" font-size="16.00">Affiliations</text>
</g>
<!-- q&#45;&gt;s -->
<g id="0" class="edge"><title>q:StudentID:e&#45;&gt;s:StudentID:w</title>
<path fill="none" stroke="black" d="M222,-91C261.076,-91 255.924,-42 295,-42"/>
</g>
<!-- qa&#45;&gt;i -->
<g id="2" class="edge"><title>qa:InstructorID:e&#45;&gt;i:InstructorID:w</title>
<path fill="none" stroke="black" d="M398,-120C435.723,-120 430.277,-72 468,-72"/>
</g>
<!-- s&#45;&gt;i -->
<g id="3" class="edge"><title>s:Affiliations:e&#45;&gt;i:Affiliations:w</title>
<path fill="none" stroke="black" d="M379,-16C420.742,-16 426.258,-46 468,-46"/>
<text text-anchor="middle" x="433" y="-43.4" font-family="Times New Roman,serif" font-size="14.00">&lt;&gt;</text>
</g>
</g>
</svg>
