<?xml version="1.0" encoding="UTF-8" standalone="no"?>
<!DOCTYPE svg PUBLIC "-//W3C//DTD SVG 1.1//EN"
 "http://www.w3.org/Graphics/SVG/1.1/DTD/svg11.dtd">
<!-- Generated by graphviz version 2.27.20100609.0445 (20100609.0445)
 -->
<!-- Title: QueryViz Pages: 1 -->
<svg width="740pt" height="120pt"
 viewBox="0.00 0.00 740.00 120.00" xmlns="http://www.w3.org/2000/svg" xmlns:xlink="http://www.w3.org/1999/xlink">
<g id="graph1" class="graph" transform="scale(1 1) rotate(0) translate(4 116)">
<title>QueryViz</title>
<polygon fill="white" stroke="white" points="-4,5 -4,-116 737,-116 737,5 -4,5"/>
<!-- select -->
<g id="node1" class="node"><title>select</title>
<polygon fill="gray" stroke="gray" points="8,-29 8,-56 84,-56 84,-29 8,-29"/>
<polygon fill="none" stroke="black" points="8,-29 8,-56 84,-56 84,-29 8,-29"/>
<text text-anchor="start" x="13.5" y="-38.7667" font-family="Times New Roman,serif" font-size="16.00"> </text>
<text text-anchor="start" x="17.5" y="-38.7667" font-family="Times New Roman,serif" font-size="16.00" fill="white">SELECT</text>
<text text-anchor="start" x="74.5" y="-38.7667" font-family="Times New Roman,serif" font-size="16.00"> </text>
<polygon fill="none" stroke="black" points="8,-3 8,-29 84,-29 84,-3 8,-3"/>
<text text-anchor="start" x="31" y="-12.2667" font-family="Times New Roman,serif" font-size="16.00">Title</text>
</g>
<!-- b -->
<g id="node2" class="node"><title>b</title>
<polygon fill="black" stroke="black" points="136,-55 136,-82 222,-82 222,-55 136,-55"/>
<polygon fill="none" stroke="black" points="136,-55 136,-82 222,-82 222,-55 136,-55"/>
<text text-anchor="start" x="141.5" y="-64.7667" font-family="Times New Roman,serif" font-size="16.00"> </text>
<text text-anchor="start" x="145.5" y="-64.7667" font-family="Times New Roman,serif" font-size="16.00" fill="white">bookcache</text>
<text text-anchor="start" x="212.5" y="-64.7667" font-family="Times New Roman,serif" font-size="16.00"> </text>
<polygon fill="none" stroke="black" points="136,-29 136,-55 222,-55 222,-29 136,-29"/>
<text text-anchor="start" x="153.5" y="-38.2667" font-family="Times New Roman,serif" font-size="16.00">BookID</text>
<polygon fill="none" stroke="black" points="136,-3 136,-29 222,-29 222,-3 136,-3"/>
<text text-anchor="start" x="164" y="-12.2667" font-family="Times New Roman,serif" font-size="16.00">Title</text>
</g>
<!-- select&#45;&gt;b -->
<g id="0" class="edge"><title>select:f0:e&#45;&gt;b:Title:w</title>
<path fill="none" stroke="black" d="M84,-16C107.111,-16 112.889,-16 136,-16"/>
</g>
<!-- cb -->
<g id="node3" class="node"><title>cb</title>
<polygon fill="black" stroke="black" points="274,-81 274,-108 372,-108 372,-81 274,-81"/>
<polygon fill="none" stroke="black" points="274,-81 274,-108 372,-108 372,-81 274,-81"/>
<text text-anchor="start" x="279.5" y="-90.7667" font-family="Times New Roman,serif" font-size="16.00"> </text>
<text text-anchor="start" x="283.5" y="-90.7667" font-family="Times New Roman,serif" font-size="16.00" fill="white">coursebooks</text>
<text text-anchor="start" x="362.5" y="-90.7667" font-family="Times New Roman,serif" font-size="16.00"> </text>
<polygon fill="none" stroke="black" points="274,-55 274,-81 372,-81 372,-55 274,-55"/>
<text text-anchor="start" x="296" y="-64.2667" font-family="Times New Roman,serif" font-size="16.00">courseid</text>
<polygon fill="none" stroke="black" points="274,-29 274,-55 372,-55 372,-29 274,-29"/>
<text text-anchor="start" x="297.5" y="-38.2667" font-family="Times New Roman,serif" font-size="16.00">BookID</text>
</g>
<!-- b&#45;&gt;cb -->
<g id="0" class="edge"><title>b:BookID:e&#45;&gt;cb:BookID:w</title>
<path fill="none" stroke="black" d="M222,-42C245.111,-42 250.889,-42 274,-42"/>
</g>
<!-- sc -->
<g id="node4" class="node"><title>sc</title>
<polygon fill="black" stroke="black" points="425,-81 425,-108 560,-108 560,-81 425,-81"/>
<polygon fill="none" stroke="black" points="425,-81 425,-108 560,-108 560,-81 425,-81"/>
<text text-anchor="start" x="430.5" y="-90.7667" font-family="Times New Roman,serif" font-size="16.00"> </text>
<text text-anchor="start" x="434.5" y="-90.7667" font-family="Times New Roman,serif" font-size="16.00" fill="white">schedules_courses</text>
<text text-anchor="start" x="550.5" y="-90.7667" font-family="Times New Roman,serif" font-size="16.00"> </text>
<polygon fill="none" stroke="black" points="425,-55 425,-81 560,-81 560,-55 425,-55"/>
<text text-anchor="start" x="461.5" y="-64.2667" font-family="Times New Roman,serif" font-size="16.00">course_id</text>
<polygon fill="none" stroke="black" points="425,-29 425,-55 560,-55 560,-29 425,-29"/>
<text text-anchor="start" x="472" y="-38.2667" font-family="Times New Roman,serif" font-size="16.00">termid</text>
</g>
<!-- cb&#45;&gt;sc -->
<g id="1" class="edge"><title>cb:courseid:e&#45;&gt;sc:course_id:w</title>
<path fill="none" stroke="black" d="M372,-68C395.556,-68 401.444,-68 425,-68"/>
</g>
<!-- t -->
<g id="node5" class="node"><title>t</title>
<polygon fill="black" stroke="black" points="613,-55 613,-82 724,-82 724,-55 613,-55"/>
<polygon fill="none" stroke="black" points="613,-55 613,-82 724,-82 724,-55 613,-55"/>
<text text-anchor="start" x="647" y="-64.7667" font-family="Times New Roman,serif" font-size="16.00"> </text>
<text text-anchor="start" x="651" y="-64.7667" font-family="Times New Roman,serif" font-size="16.00" fill="white">terms</text>
<text text-anchor="start" x="686" y="-64.7667" font-family="Times New Roman,serif" font-size="16.00"> </text>
<polygon fill="none" stroke="black" points="613,-29 613,-55 724,-55 724,-29 613,-29"/>
<text text-anchor="start" x="645.5" y="-38.2667" font-family="Times New Roman,serif" font-size="16.00">TermId</text>
<polygon fill="#fcffa6" stroke="#fcffa6" points="613,-3 613,-29 724,-29 724,-3 613,-3"/>
<polygon fill="none" stroke="black" points="613,-3 613,-29 724,-29 724,-3 613,-3"/>
<text text-anchor="start" x="618.5" y="-12.2667" font-family="Times New Roman,serif" font-size="16.00">Name = &#39;Spring&#39;</text>
</g>
<!-- sc&#45;&gt;t -->
<g id="2" class="edge"><title>sc:termid:e&#45;&gt;t:TermId:w</title>
<path fill="none" stroke="black" d="M560,-42C583.556,-42 589.444,-42 613,-42"/>
</g>
</g>
</svg>
