<?xml version="1.0" encoding="UTF-8" standalone="no"?>
<!DOCTYPE svg PUBLIC "-//W3C//DTD SVG 1.1//EN"
 "http://www.w3.org/Graphics/SVG/1.1/DTD/svg11.dtd">
<!-- Generated by graphviz version 2.27.20100609.0445 (20100609.0445)
 -->
<!-- Title: QueryViz Pages: 1 -->
<svg width="380pt" height="406pt"
 viewBox="0.00 0.00 380.00 406.00" xmlns="http://www.w3.org/2000/svg" xmlns:xlink="http://www.w3.org/1999/xlink">
<g id="graph1" class="graph" transform="scale(1 1) rotate(0) translate(4 402)">
<title>QueryViz</title>
<polygon fill="white" stroke="white" points="-4,5 -4,-402 377,-402 377,5 -4,5"/>
<!-- select -->
<g id="node1" class="node"><title>select</title>
<polygon fill="gray" stroke="gray" points="8,-237 8,-264 84,-264 84,-237 8,-237"/>
<polygon fill="none" stroke="black" points="8,-237 8,-264 84,-264 84,-237 8,-237"/>
<text text-anchor="start" x="13.5" y="-246.767" font-family="Times New Roman,serif" font-size="16.00"> </text>
<text text-anchor="start" x="17.5" y="-246.767" font-family="Times New Roman,serif" font-size="16.00" fill="white">SELECT</text>
<text text-anchor="start" x="74.5" y="-246.767" font-family="Times New Roman,serif" font-size="16.00"> </text>
<polygon fill="none" stroke="black" points="8,-211 8,-237 84,-237 84,-211 8,-211"/>
<text text-anchor="start" x="32" y="-220.267" font-family="Times New Roman,serif" font-size="16.00">Text</text>
</g>
<!-- com -->
<g id="node3" class="node"><title>com</title>
<polygon fill="black" stroke="black" points="136,-289 136,-316 224,-316 224,-289 136,-289"/>
<polygon fill="none" stroke="black" points="136,-289 136,-316 224,-316 224,-289 136,-289"/>
<text text-anchor="start" x="144" y="-298.767" font-family="Times New Roman,serif" font-size="16.00"> </text>
<text text-anchor="start" x="148" y="-298.767" font-family="Times New Roman,serif" font-size="16.00" fill="white">comments</text>
<text text-anchor="start" x="212" y="-298.767" font-family="Times New Roman,serif" font-size="16.00"> </text>
<polygon fill="none" stroke="black" points="136,-263 136,-289 224,-289 224,-263 136,-263"/>
<text text-anchor="start" x="148" y="-272.267" font-family="Times New Roman,serif" font-size="16.00">StudentID</text>
<polygon fill="none" stroke="black" points="136,-237 136,-263 224,-263 224,-237 136,-237"/>
<text text-anchor="start" x="141.5" y="-246.267" font-family="Times New Roman,serif" font-size="16.00">InstructorID</text>
<polygon fill="none" stroke="black" points="136,-211 136,-237 224,-237 224,-211 136,-211"/>
<text text-anchor="start" x="166" y="-220.267" font-family="Times New Roman,serif" font-size="16.00">Text</text>
<polygon fill="none" stroke="black" points="136,-185 136,-211 224,-211 224,-185 136,-185"/>
<text text-anchor="start" x="153" y="-194.267" font-family="Times New Roman,serif" font-size="16.00">courseid</text>
<polygon fill="none" stroke="black" points="136,-159 136,-185 224,-185 224,-159 136,-159"/>
<text text-anchor="start" x="157" y="-168.267" font-family="Times New Roman,serif" font-size="16.00">TermId</text>
<polygon fill="none" stroke="black" points="136,-133 136,-159 224,-159 224,-133 136,-133"/>
<text text-anchor="start" x="163" y="-142.267" font-family="Times New Roman,serif" font-size="16.00">grade</text>
</g>
<!-- select&#45;&gt;com -->
<g id="0" class="edge"><title>select:f0:e&#45;&gt;com:Text:w</title>
<path fill="none" stroke="black" d="M84,-224C107.111,-224 112.889,-224 136,-224"/>
</g>
<!-- c -->
<g id="node2" class="node"><title>c</title>
<polygon fill="black" stroke="black" points="284,-211 284,-238 357,-238 357,-211 284,-211"/>
<polygon fill="none" stroke="black" points="284,-211 284,-238 357,-238 357,-211 284,-211"/>
<text text-anchor="start" x="292.5" y="-220.767" font-family="Times New Roman,serif" font-size="16.00"> </text>
<text text-anchor="start" x="296.5" y="-220.767" font-family="Times New Roman,serif" font-size="16.00" fill="white">courses</text>
<text text-anchor="start" x="344.5" y="-220.767" font-family="Times New Roman,serif" font-size="16.00"> </text>
<polygon fill="none" stroke="black" points="284,-185 284,-211 357,-211 357,-185 284,-185"/>
<text text-anchor="start" x="289.5" y="-194.267" font-family="Times New Roman,serif" font-size="16.00">course_id</text>
</g>
<!-- com&#45;&gt;c -->
<g id="4" class="edge"><title>com:courseid:e&#45;&gt;c:course_id:w</title>
<path fill="none" stroke="black" d="M224,-198C250.667,-198 257.333,-198 284,-198"/>
</g>
<!-- g -->
<g id="node4" class="node"><title>g</title>
<polygon fill="black" stroke="black" points="278,-55 278,-82 362,-82 362,-55 278,-55"/>
<polygon fill="none" stroke="black" points="278,-55 278,-82 362,-82 362,-55 278,-55"/>
<text text-anchor="start" x="296" y="-64.7667" font-family="Times New Roman,serif" font-size="16.00"> </text>
<text text-anchor="start" x="300" y="-64.7667" font-family="Times New Roman,serif" font-size="16.00" fill="white">grades</text>
<text text-anchor="start" x="340" y="-64.7667" font-family="Times New Roman,serif" font-size="16.00"> </text>
<polygon fill="none" stroke="black" points="278,-29 278,-55 362,-55 362,-29 278,-29"/>
<text text-anchor="start" x="292.5" y="-38.2667" font-family="Times New Roman,serif" font-size="16.00">grade_id</text>
<polygon fill="#fcffa6" stroke="#fcffa6" points="278,-3 278,-29 362,-29 362,-3 278,-3"/>
<polygon fill="none" stroke="black" points="278,-3 278,-29 362,-29 362,-3 278,-3"/>
<text text-anchor="start" x="283.5" y="-12.2667" font-family="Times New Roman,serif" font-size="16.00">points &gt;= 7</text>
</g>
<!-- com&#45;&gt;g -->
<g id="3" class="edge"><title>com:grade:e&#45;&gt;g:grade_id:w</title>
<path fill="none" stroke="black" d="M224,-146C276.082,-146 225.918,-42 278,-42"/>
</g>
<!-- i -->
<g id="node5" class="node"><title>i</title>
<polygon fill="black" stroke="black" points="276,-289 276,-316 364,-316 364,-289 276,-289"/>
<polygon fill="none" stroke="black" points="276,-289 276,-316 364,-316 364,-289 276,-289"/>
<text text-anchor="start" x="282.5" y="-298.767" font-family="Times New Roman,serif" font-size="16.00"> </text>
<text text-anchor="start" x="286.5" y="-298.767" font-family="Times New Roman,serif" font-size="16.00" fill="white">instructors</text>
<text text-anchor="start" x="353.5" y="-298.767" font-family="Times New Roman,serif" font-size="16.00"> </text>
<polygon fill="none" stroke="black" points="276,-263 276,-289 364,-289 364,-263 276,-263"/>
<text text-anchor="start" x="281.5" y="-272.267" font-family="Times New Roman,serif" font-size="16.00">InstructorID</text>
</g>
<!-- com&#45;&gt;i -->
<g id="0" class="edge"><title>com:InstructorID:e&#45;&gt;i:InstructorID:w</title>
<path fill="none" stroke="black" d="M224,-250C249.839,-250 250.161,-276 276,-276"/>
</g>
<!-- s -->
<g id="node6" class="node"><title>s</title>
<polygon fill="black" stroke="black" points="283,-367 283,-394 358,-394 358,-367 283,-367"/>
<polygon fill="none" stroke="black" points="283,-367 283,-394 358,-394 358,-367 283,-367"/>
<text text-anchor="start" x="290.5" y="-376.767" font-family="Times New Roman,serif" font-size="16.00"> </text>
<text text-anchor="start" x="294.5" y="-376.767" font-family="Times New Roman,serif" font-size="16.00" fill="white">students</text>
<text text-anchor="start" x="346.5" y="-376.767" font-family="Times New Roman,serif" font-size="16.00"> </text>
<polygon fill="none" stroke="black" points="283,-341 283,-367 358,-367 358,-341 283,-341"/>
<text text-anchor="start" x="288.5" y="-350.267" font-family="Times New Roman,serif" font-size="16.00">StudentID</text>
</g>
<!-- com&#45;&gt;s -->
<g id="1" class="edge"><title>com:StudentID:e&#45;&gt;s:StudentID:w</title>
<path fill="none" stroke="black" d="M224,-276C267.467,-276 239.533,-354 283,-354"/>
</g>
<!-- t -->
<g id="node7" class="node"><title>t</title>
<polygon fill="black" stroke="black" points="292,-133 292,-160 349,-160 349,-133 292,-133"/>
<polygon fill="none" stroke="black" points="292,-133 292,-160 349,-160 349,-133 292,-133"/>
<text text-anchor="start" x="299" y="-142.767" font-family="Times New Roman,serif" font-size="16.00"> </text>
<text text-anchor="start" x="303" y="-142.767" font-family="Times New Roman,serif" font-size="16.00" fill="white">terms</text>
<text text-anchor="start" x="338" y="-142.767" font-family="Times New Roman,serif" font-size="16.00"> </text>
<polygon fill="none" stroke="black" points="292,-107 292,-133 349,-133 349,-107 292,-107"/>
<text text-anchor="start" x="297.5" y="-116.267" font-family="Times New Roman,serif" font-size="16.00">TermId</text>
</g>
<!-- com&#45;&gt;t -->
<g id="2" class="edge"><title>com:TermId:e&#45;&gt;t:TermId:w</title>
<path fill="none" stroke="black" d="M224,-172C262.046,-172 253.954,-120 292,-120"/>
</g>
</g>
</svg>
