<?xml version="1.0" encoding="UTF-8" standalone="no"?>
<!DOCTYPE svg PUBLIC "-//W3C//DTD SVG 1.1//EN"
 "http://www.w3.org/Graphics/SVG/1.1/DTD/svg11.dtd">
<!-- Generated by graphviz version 2.27.20100609.0445 (20100609.0445)
 -->
<!-- Title: QueryViz Pages: 1 -->
<svg width="818pt" height="224pt"
 viewBox="0.00 0.00 818.00 224.00" xmlns="http://www.w3.org/2000/svg" xmlns:xlink="http://www.w3.org/1999/xlink">
<g id="graph1" class="graph" transform="scale(1 1) rotate(0) translate(4 220)">
<title>QueryViz</title>
<polygon fill="white" stroke="white" points="-4,5 -4,-220 815,-220 815,5 -4,5"/>
<!-- select -->
<g id="node1" class="node"><title>select</title>
<polygon fill="gray" stroke="gray" points="8,-94 8,-121 84,-121 84,-94 8,-94"/>
<polygon fill="none" stroke="black" points="8,-94 8,-121 84,-121 84,-94 8,-94"/>
<text text-anchor="start" x="13.5" y="-103.767" font-family="Times New Roman,serif" font-size="16.00"> </text>
<text text-anchor="start" x="17.5" y="-103.767" font-family="Times New Roman,serif" font-size="16.00" fill="white">SELECT</text>
<text text-anchor="start" x="74.5" y="-103.767" font-family="Times New Roman,serif" font-size="16.00"> </text>
<polygon fill="none" stroke="black" points="8,-68 8,-94 84,-94 84,-68 8,-68"/>
<text text-anchor="start" x="32" y="-77.2667" font-family="Times New Roman,serif" font-size="16.00">Text</text>
</g>
<!-- q -->
<g id="node3" class="node"><title>q</title>
<polygon fill="black" stroke="black" points="136,-146 136,-173 220,-173 220,-146 136,-146"/>
<polygon fill="none" stroke="black" points="136,-146 136,-173 220,-173 220,-146 136,-146"/>
<text text-anchor="start" x="144" y="-155.767" font-family="Times New Roman,serif" font-size="16.00"> </text>
<text text-anchor="start" x="148" y="-155.767" font-family="Times New Roman,serif" font-size="16.00" fill="white">questions</text>
<text text-anchor="start" x="208" y="-155.767" font-family="Times New Roman,serif" font-size="16.00"> </text>
<polygon fill="none" stroke="black" points="136,-120 136,-146 220,-146 220,-120 136,-120"/>
<text text-anchor="start" x="141.5" y="-129.267" font-family="Times New Roman,serif" font-size="16.00">QuestionID</text>
<polygon fill="none" stroke="black" points="136,-94 136,-120 220,-120 220,-94 136,-94"/>
<text text-anchor="start" x="146" y="-103.267" font-family="Times New Roman,serif" font-size="16.00">StudentID</text>
<polygon fill="none" stroke="black" points="136,-68 136,-94 220,-94 220,-68 136,-68"/>
<text text-anchor="start" x="164" y="-77.2667" font-family="Times New Roman,serif" font-size="16.00">Text</text>
</g>
<!-- select&#45;&gt;q -->
<g id="0" class="edge"><title>select:f0:e&#45;&gt;q:Text:w</title>
<path fill="none" stroke="black" d="M84,-81C107.111,-81 112.889,-81 136,-81"/>
</g>
<!-- i -->
<g id="node2" class="node"><title>i</title>
<polygon fill="black" stroke="black" points="461,-159 461,-186 549,-186 549,-159 461,-159"/>
<polygon fill="none" stroke="black" points="461,-159 461,-186 549,-186 549,-159 461,-159"/>
<text text-anchor="start" x="467.5" y="-168.767" font-family="Times New Roman,serif" font-size="16.00"> </text>
<text text-anchor="start" x="471.5" y="-168.767" font-family="Times New Roman,serif" font-size="16.00" fill="white">instructors</text>
<text text-anchor="start" x="538.5" y="-168.767" font-family="Times New Roman,serif" font-size="16.00"> </text>
<polygon fill="none" stroke="black" points="461,-133 461,-159 549,-159 549,-133 461,-133"/>
<text text-anchor="start" x="466.5" y="-142.267" font-family="Times New Roman,serif" font-size="16.00">InstructorID</text>
</g>
<!-- qa -->
<g id="node4" class="node"><title>qa</title>
<polygon fill="black" stroke="black" points="272,-185 272,-212 394,-212 394,-185 272,-185"/>
<polygon fill="none" stroke="black" points="272,-185 272,-212 394,-212 394,-185 272,-185"/>
<text text-anchor="start" x="277.5" y="-194.767" font-family="Times New Roman,serif" font-size="16.00"> </text>
<text text-anchor="start" x="281.5" y="-194.767" font-family="Times New Roman,serif" font-size="16.00" fill="white">questionanswers</text>
<text text-anchor="start" x="384.5" y="-194.767" font-family="Times New Roman,serif" font-size="16.00"> </text>
<polygon fill="none" stroke="black" points="272,-159 272,-185 394,-185 394,-159 272,-159"/>
<text text-anchor="start" x="296.5" y="-168.267" font-family="Times New Roman,serif" font-size="16.00">QuestionID</text>
<polygon fill="none" stroke="black" points="272,-133 272,-159 394,-159 394,-133 272,-133"/>
<text text-anchor="start" x="294.5" y="-142.267" font-family="Times New Roman,serif" font-size="16.00">InstructorID</text>
</g>
<!-- q&#45;&gt;qa -->
<g id="1" class="edge"><title>q:QuestionID:e&#45;&gt;qa:QuestionID:w</title>
<path fill="none" stroke="black" d="M220,-133C248.889,-133 243.111,-172 272,-172"/>
</g>
<!-- s -->
<g id="node5" class="node"><title>s</title>
<polygon fill="black" stroke="black" points="296,-81 296,-108 371,-108 371,-81 296,-81"/>
<polygon fill="none" stroke="black" points="296,-81 296,-108 371,-108 371,-81 296,-81"/>
<text text-anchor="start" x="303.5" y="-90.7667" font-family="Times New Roman,serif" font-size="16.00"> </text>
<text text-anchor="start" x="307.5" y="-90.7667" font-family="Times New Roman,serif" font-size="16.00" fill="white">students</text>
<text text-anchor="start" x="359.5" y="-90.7667" font-family="Times New Roman,serif" font-size="16.00"> </text>
<polygon fill="none" stroke="black" points="296,-55 296,-81 371,-81 371,-55 296,-55"/>
<text text-anchor="start" x="301.5" y="-64.2667" font-family="Times New Roman,serif" font-size="16.00">StudentID</text>
</g>
<!-- q&#45;&gt;s -->
<g id="0" class="edge"><title>q:StudentID:e&#45;&gt;s:StudentID:w</title>
<path fill="none" stroke="black" d="M220,-107C257.966,-107 258.034,-68 296,-68"/>
</g>
<!-- qa&#45;&gt;i -->
<g id="2" class="edge"><title>qa:InstructorID:e&#45;&gt;i:InstructorID:w</title>
<path fill="none" stroke="black" d="M394,-146C423.778,-146 431.222,-146 461,-146"/>
</g>
<!-- ss -->
<g id="node7" class="node"><title>ss</title>
<polygon fill="black" stroke="black" points="447,-81 447,-108 564,-108 564,-81 447,-81"/>
<polygon fill="none" stroke="black" points="447,-81 447,-108 564,-108 564,-81 447,-81"/>
<text text-anchor="start" x="457" y="-90.7667" font-family="Times New Roman,serif" font-size="16.00"> </text>
<text text-anchor="start" x="461" y="-90.7667" font-family="Times New Roman,serif" font-size="16.00" fill="white">studentstudies</text>
<text text-anchor="start" x="550" y="-90.7667" font-family="Times New Roman,serif" font-size="16.00"> </text>
<polygon fill="none" stroke="black" points="447,-55 447,-81 564,-81 564,-55 447,-55"/>
<text text-anchor="start" x="473.5" y="-64.2667" font-family="Times New Roman,serif" font-size="16.00">StudentID</text>
<polygon fill="none" stroke="black" points="447,-29 447,-55 564,-55 564,-29 447,-29"/>
<text text-anchor="start" x="452.5" y="-38.2667" font-family="Times New Roman,serif" font-size="16.00">StudyProgramID</text>
</g>
<!-- s&#45;&gt;ss -->
<g id="3" class="edge"><title>s:StudentID:e&#45;&gt;ss:StudentID:w</title>
<path fill="none" stroke="black" d="M371,-68C404.778,-68 413.222,-68 447,-68"/>
</g>
<!-- sp -->
<g id="node6" class="node"><title>sp</title>
<polygon fill="black" stroke="black" points="617,-55 617,-82 802,-82 802,-55 617,-55"/>
<polygon fill="none" stroke="black" points="617,-55 617,-82 802,-82 802,-55 617,-55"/>
<text text-anchor="start" x="659.5" y="-64.7667" font-family="Times New Roman,serif" font-size="16.00"> </text>
<text text-anchor="start" x="663.5" y="-64.7667" font-family="Times New Roman,serif" font-size="16.00" fill="white">studyprograms</text>
<text text-anchor="start" x="755.5" y="-64.7667" font-family="Times New Roman,serif" font-size="16.00"> </text>
<polygon fill="none" stroke="black" points="617,-29 617,-55 802,-55 802,-29 617,-29"/>
<text text-anchor="start" x="656.5" y="-38.2667" font-family="Times New Roman,serif" font-size="16.00">StudyProgramID</text>
<polygon fill="#fcffa6" stroke="#fcffa6" points="617,-3 617,-29 802,-29 802,-3 617,-3"/>
<polygon fill="none" stroke="black" points="617,-3 617,-29 802,-29 802,-3 617,-3"/>
<text text-anchor="start" x="622.5" y="-12.2667" font-family="Times New Roman,serif" font-size="16.00">Name = &#39;Computer Science&#39;</text>
</g>
<!-- ss&#45;&gt;sp -->
<g id="4" class="edge"><title>ss:StudyProgramID:e&#45;&gt;sp:StudyProgramID:w</title>
<path fill="none" stroke="black" d="M564,-42C587.556,-42 593.444,-42 617,-42"/>
</g>
</g>
</svg>
