<?xml version="1.0" encoding="UTF-8" standalone="no"?>
<!DOCTYPE svg PUBLIC "-//W3C//DTD SVG 1.1//EN"
 "http://www.w3.org/Graphics/SVG/1.1/DTD/svg11.dtd">
<!-- Generated by graphviz version 2.27.20100609.0445 (20100609.0445)
 -->
<!-- Title: QueryViz Pages: 1 -->
<svg width="850pt" height="224pt"
 viewBox="0.00 0.00 850.00 224.00" xmlns="http://www.w3.org/2000/svg" xmlns:xlink="http://www.w3.org/1999/xlink">
<g id="graph1" class="graph" transform="scale(1 1) rotate(0) translate(4 220)">
<title>QueryViz</title>
<polygon fill="white" stroke="white" points="-4,5 -4,-220 847,-220 847,5 -4,5"/>
<!-- select -->
<g id="node1" class="node"><title>select</title>
<polygon fill="gray" stroke="gray" points="8,-107 8,-134 84,-134 84,-107 8,-107"/>
<polygon fill="none" stroke="black" points="8,-107 8,-134 84,-134 84,-107 8,-107"/>
<text text-anchor="start" x="13.5" y="-116.767" font-family="Times New Roman,serif" font-size="16.00"> </text>
<text text-anchor="start" x="17.5" y="-116.767" font-family="Times New Roman,serif" font-size="16.00" fill="white">SELECT</text>
<text text-anchor="start" x="74.5" y="-116.767" font-family="Times New Roman,serif" font-size="16.00"> </text>
<polygon fill="none" stroke="black" points="8,-81 8,-107 84,-107 84,-81 8,-81"/>
<text text-anchor="start" x="31" y="-90.2667" font-family="Times New Roman,serif" font-size="16.00">Title</text>
</g>
<!-- b -->
<g id="node2" class="node"><title>b</title>
<polygon fill="black" stroke="black" points="136,-133 136,-160 222,-160 222,-133 136,-133"/>
<polygon fill="none" stroke="black" points="136,-133 136,-160 222,-160 222,-133 136,-133"/>
<text text-anchor="start" x="141.5" y="-142.767" font-family="Times New Roman,serif" font-size="16.00"> </text>
<text text-anchor="start" x="145.5" y="-142.767" font-family="Times New Roman,serif" font-size="16.00" fill="white">bookcache</text>
<text text-anchor="start" x="212.5" y="-142.767" font-family="Times New Roman,serif" font-size="16.00"> </text>
<polygon fill="none" stroke="black" points="136,-107 136,-133 222,-133 222,-107 136,-107"/>
<text text-anchor="start" x="153.5" y="-116.267" font-family="Times New Roman,serif" font-size="16.00">BookID</text>
<polygon fill="none" stroke="black" points="136,-81 136,-107 222,-107 222,-81 136,-81"/>
<text text-anchor="start" x="164" y="-90.2667" font-family="Times New Roman,serif" font-size="16.00">Title</text>
</g>
<!-- select&#45;&gt;b -->
<g id="0" class="edge"><title>select:f0:e&#45;&gt;b:Title:w</title>
<path fill="none" stroke="black" d="M84,-94C107.111,-94 112.889,-94 136,-94"/>
</g>
<!-- cb -->
<g id="node4" class="node"><title>cb</title>
<polygon fill="black" stroke="black" points="274,-159 274,-186 372,-186 372,-159 274,-159"/>
<polygon fill="none" stroke="black" points="274,-159 274,-186 372,-186 372,-159 274,-159"/>
<text text-anchor="start" x="279.5" y="-168.767" font-family="Times New Roman,serif" font-size="16.00"> </text>
<text text-anchor="start" x="283.5" y="-168.767" font-family="Times New Roman,serif" font-size="16.00" fill="white">coursebooks</text>
<text text-anchor="start" x="362.5" y="-168.767" font-family="Times New Roman,serif" font-size="16.00"> </text>
<polygon fill="none" stroke="black" points="274,-133 274,-159 372,-159 372,-133 274,-133"/>
<text text-anchor="start" x="296" y="-142.267" font-family="Times New Roman,serif" font-size="16.00">courseid</text>
<polygon fill="none" stroke="black" points="274,-107 274,-133 372,-133 372,-107 274,-107"/>
<text text-anchor="start" x="297.5" y="-116.267" font-family="Times New Roman,serif" font-size="16.00">BookID</text>
<polygon fill="none" stroke="black" points="274,-81 274,-107 372,-107 372,-81 274,-81"/>
<text text-anchor="start" x="284.5" y="-90.2667" font-family="Times New Roman,serif" font-size="16.00">InstructorID</text>
<polygon fill="none" stroke="black" points="274,-55 274,-81 372,-81 372,-55 274,-55"/>
<text text-anchor="start" x="291" y="-64.2667" font-family="Times New Roman,serif" font-size="16.00">StudentID</text>
</g>
<!-- b&#45;&gt;cb -->
<g id="1" class="edge"><title>b:BookID:e&#45;&gt;cb:BookID:w</title>
<path fill="none" stroke="black" d="M222,-120C245.111,-120 250.889,-120 274,-120"/>
</g>
<!-- c -->
<g id="node3" class="node"><title>c</title>
<polygon fill="black" stroke="black" points="432,-185 432,-212 505,-212 505,-185 432,-185"/>
<polygon fill="none" stroke="black" points="432,-185 432,-212 505,-212 505,-185 432,-185"/>
<text text-anchor="start" x="440.5" y="-194.767" font-family="Times New Roman,serif" font-size="16.00"> </text>
<text text-anchor="start" x="444.5" y="-194.767" font-family="Times New Roman,serif" font-size="16.00" fill="white">courses</text>
<text text-anchor="start" x="492.5" y="-194.767" font-family="Times New Roman,serif" font-size="16.00"> </text>
<polygon fill="none" stroke="black" points="432,-159 432,-185 505,-185 505,-159 432,-159"/>
<text text-anchor="start" x="437.5" y="-168.267" font-family="Times New Roman,serif" font-size="16.00">course_id</text>
</g>
<!-- ce -->
<g id="node5" class="node"><title>ce</title>
<polygon fill="black" stroke="black" points="564,-185 564,-212 834,-212 834,-185 564,-185"/>
<polygon fill="none" stroke="black" points="564,-185 564,-212 834,-212 834,-185 564,-185"/>
<text text-anchor="start" x="647.5" y="-194.767" font-family="Times New Roman,serif" font-size="16.00"> </text>
<text text-anchor="start" x="651.5" y="-194.767" font-family="Times New Roman,serif" font-size="16.00" fill="white">catalog_entries</text>
<text text-anchor="start" x="746.5" y="-194.767" font-family="Times New Roman,serif" font-size="16.00"> </text>
<polygon fill="none" stroke="black" points="564,-159 564,-185 834,-185 834,-159 564,-159"/>
<text text-anchor="start" x="668" y="-168.267" font-family="Times New Roman,serif" font-size="16.00">course_id</text>
<polygon fill="#fcffa6" stroke="#fcffa6" points="564,-133 564,-159 834,-159 834,-133 564,-133"/>
<polygon fill="none" stroke="black" points="564,-133 564,-159 834,-159 834,-133 564,-133"/>
<text text-anchor="start" x="569.5" y="-142.267" font-family="Times New Roman,serif" font-size="16.00">Title LIKE &#39;Implementation%Database%&#39;</text>
</g>
<!-- c&#45;&gt;ce -->
<g id="4" class="edge"><title>c:course_id:e&#45;&gt;ce:course_id:w</title>
<path fill="none" stroke="black" d="M505,-172C531.222,-172 537.778,-172 564,-172"/>
</g>
<!-- cb&#45;&gt;c -->
<g id="3" class="edge"><title>cb:courseid:e&#45;&gt;c:course_id:w</title>
<path fill="none" stroke="black" d="M372,-146C401.063,-146 402.937,-172 432,-172"/>
</g>
<!-- i -->
<g id="node6" class="node"><title>i</title>
<polygon fill="black" stroke="black" points="424,-107 424,-134 512,-134 512,-107 424,-107"/>
<polygon fill="none" stroke="black" points="424,-107 424,-134 512,-134 512,-107 424,-107"/>
<text text-anchor="start" x="430.5" y="-116.767" font-family="Times New Roman,serif" font-size="16.00"> </text>
<text text-anchor="start" x="434.5" y="-116.767" font-family="Times New Roman,serif" font-size="16.00" fill="white">instructors</text>
<text text-anchor="start" x="501.5" y="-116.767" font-family="Times New Roman,serif" font-size="16.00"> </text>
<polygon fill="none" stroke="black" points="424,-81 424,-107 512,-107 512,-81 424,-81"/>
<text text-anchor="start" x="429.5" y="-90.2667" font-family="Times New Roman,serif" font-size="16.00">InstructorID</text>
</g>
<!-- cb&#45;&gt;i -->
<g id="2" class="edge"><title>cb:InstructorID:e&#45;&gt;i:InstructorID:w</title>
<path fill="none" stroke="black" d="M372,-94C395.111,-94 400.889,-94 424,-94"/>
</g>
<!-- s -->
<g id="node7" class="node"><title>s</title>
<polygon fill="black" stroke="black" points="431,-29 431,-56 506,-56 506,-29 431,-29"/>
<polygon fill="none" stroke="black" points="431,-29 431,-56 506,-56 506,-29 431,-29"/>
<text text-anchor="start" x="438.5" y="-38.7667" font-family="Times New Roman,serif" font-size="16.00"> </text>
<text text-anchor="start" x="442.5" y="-38.7667" font-family="Times New Roman,serif" font-size="16.00" fill="white">students</text>
<text text-anchor="start" x="494.5" y="-38.7667" font-family="Times New Roman,serif" font-size="16.00"> </text>
<polygon fill="none" stroke="black" points="431,-3 431,-29 506,-29 506,-3 431,-3"/>
<text text-anchor="start" x="436.5" y="-12.2667" font-family="Times New Roman,serif" font-size="16.00">StudentID</text>
</g>
<!-- cb&#45;&gt;s -->
<g id="0" class="edge"><title>cb:StudentID:e&#45;&gt;s:StudentID:w</title>
<path fill="none" stroke="black" d="M372,-68C406.953,-68 396.047,-16 431,-16"/>
</g>
</g>
</svg>
